<svg width="953" height="958" viewBox="0 0 953 958" fill="none" xmlns="http://www.w3.org/2000/svg">
<path d="M525.117 163.331C526.697 159.13 528.276 154.928 529.856 150.726C531.705 145.798 529.391 140.228 526.071 136.583C525.325 135.76 524.577 134.948 523.831 134.125C521.492 131.558 516.912 129.718 513.434 129.875C509.955 130.032 507.175 130.977 504.53 132.999C498.922 137.286 496.852 145.544 500.747 151.743C502.216 154.08 503.489 156.49 504.591 159.021L503.109 155.545C504.273 158.282 505.327 161.127 505.805 164.07L505.278 160.207C505.425 161.358 505.461 162.459 505.314 163.61L505.841 159.747C505.719 160.377 505.559 160.97 505.327 161.575L506.808 158.1C506.538 158.682 506.22 159.202 505.828 159.723L508.132 156.78C507.727 157.253 507.299 157.677 506.821 158.076L509.797 155.8C508.081 157.107 506.111 157.943 504.163 158.827C501.898 159.844 499.619 160.873 497.354 161.89C492.725 163.973 488.095 166.056 483.467 168.138C490.165 174.762 496.877 181.398 503.575 188.02C505.792 185.09 507.997 182.148 509.993 179.06C512.577 175.065 514.585 170.814 516.311 166.383C518.039 161.951 518.76 157.41 519.03 152.833C519.3 148.183 518.651 143.158 516.899 138.823C516.202 136.365 514.939 134.222 513.116 132.406C511.278 130.602 509.122 129.354 506.625 128.664C501.48 127.259 496.129 128.797 492.321 132.406C486.725 137.697 481.14 143.001 475.543 148.292C470.301 153.257 465.194 158.5 459.476 162.944L462.452 160.667C459.428 162.968 456.218 164.918 452.716 166.419L456.231 164.954C450.266 167.424 443.91 168.647 437.53 169.507L441.438 168.986C439.122 169.289 436.795 169.555 434.468 169.809L438.376 198.35C447.033 195.735 455.691 193.107 464.349 190.492C467.951 189.402 471.207 187.051 473.131 183.819C475.053 180.587 475.751 176.118 474.613 172.619C473.473 169.119 471.258 165.705 467.865 163.937C464.473 162.169 460.357 161.309 456.537 162.472C447.879 165.087 439.221 167.715 430.563 170.33C423.532 172.461 419.051 179.049 420.031 186.278C420.447 189.329 421.709 192.478 424.072 194.62C426.754 197.054 430.672 199.294 434.468 198.871C447.095 197.466 459.55 195.941 470.927 189.91C476.499 186.955 481.471 182.765 486.087 178.516C490.289 174.641 494.403 170.669 498.542 166.746C503.392 162.145 508.254 157.543 513.103 152.942L488.538 146.524C489.259 148.304 489.724 150.121 489.994 152.01L489.467 148.147C489.737 150.399 489.701 152.639 489.419 154.891L489.945 151.029C489.528 153.995 488.708 156.841 487.558 159.614L489.039 156.139C486.344 162.411 482.268 167.896 478.177 173.321L476.695 176.796C476.082 178.734 475.996 180.658 476.438 182.596C476.853 185.647 478.116 188.796 480.478 190.94C482.352 192.647 484.544 193.905 486.97 194.68C490.864 195.928 494.757 194.801 498.298 193.215C503.196 191.013 508.106 188.808 513.004 186.603C518.345 184.207 524.052 182.185 528.301 177.995C534.927 171.48 535.979 161.975 533.494 153.426C531.84 147.735 529.294 142.105 526.133 137.068L503.048 154.673C503.796 155.497 504.543 156.308 505.291 157.132L501.506 142.989C499.927 147.19 498.346 151.392 496.766 155.594C495.505 158.948 496.485 163.804 498.247 166.794C500.011 169.785 503.527 172.679 507.029 173.466C510.789 174.314 515.013 174.132 518.358 172.001C521.7 169.87 523.709 167.037 525.104 163.319L525.117 163.331Z" fill="#8367AA"/>
<path d="M401 204.016C401.122 203.847 406.829 204.973 407.736 203.58C419.504 185.453 415.671 174.06 416.552 168.211C437.691 159.796 429.043 166.128 429.619 173.987C427.61 175.961 415.401 190.963 420.177 191.786C435.731 168.332 484.398 161.006 511.989 142.08C494.072 161.358 450.231 169.664 428.774 188.118C439.882 192.974 442.013 181.423 458.018 175.646C466.531 177.522 424.685 198.773 495.566 164.494C500.294 165.547 464.731 190.406 519.348 159.202L496.595 175.392C502.241 181.41 546.757 153.778 509.514 183.661C507.531 184.728 495.139 186.168 500.77 189.825C511.082 186.641 509.122 183.977 509.514 183.661C514.952 180.743 526.354 174.605 530.15 174.859C512.49 215.919 466.701 215.508 420.447 243.551C416.014 217.711 428.272 173.83 409.793 225.401C404.575 255.104 414.838 248.565 415.034 249.909C415.108 250.465 414.826 251.022 414.935 251.568" fill="#5B3D70"/>
<path d="M495.2 111.785C495.077 112.015 494.892 112.075 494.635 111.954L496.473 113.771C496.424 113.129 496.816 112.778 497.453 112.62C498.395 112.378 499.118 113.02 499.596 113.771C500.747 115.587 500.502 118.069 499.815 119.995C498.163 124.62 493.668 127.369 488.991 128.277C486.43 128.773 483.737 128.749 481.165 128.447C480.099 128.325 479.009 128.362 479.254 127.078C479.475 125.904 480.16 124.765 480.761 123.748C481.948 121.726 483.467 119.922 485.254 118.372C486.259 117.5 488.94 115.018 490.521 115.575C491.305 115.853 490.251 117.294 489.946 117.863C489.271 119.086 488.525 120.273 487.693 121.411C486.026 123.676 483.981 125.661 481.764 127.393L484.9 128.677C484.862 120.067 490.827 111.991 499.166 109.46L496.901 107.22C495.065 115.054 488.782 121.339 480.87 123.24L483.197 124.995C483.895 115.405 487.924 106.203 494.513 99.1314L491.623 96.9275C486.479 103.648 480.209 109.52 473.18 114.267L475.69 116.749C480.013 109.484 485.353 102.921 491.585 97.1696L488.512 95.4019C486.283 105.052 481.214 113.807 473.915 120.588L476.988 122.356C478.788 112.293 482.23 102.619 487.252 93.6823L483.821 92.7621C483.307 100.839 480.295 108.528 475.311 114.933L478.74 115.853C479.572 107.656 481.568 99.6277 484.569 91.9508C485.218 90.3041 482.609 88.7662 481.494 90.183C474.809 98.6712 467.424 106.578 459.403 113.843L462.292 116.047C467.106 106.59 473.389 97.9809 480.969 90.5098L478.078 88.3061C471.637 96.9637 463.137 103.963 453.451 108.818L455.961 111.301C459.194 106.275 463.199 101.856 467.852 98.0899C469.69 96.6005 467.081 94.1061 465.256 95.5229C462.023 98.0415 458.779 100.56 455.546 103.079L458.141 105.646C466.872 98.0899 476.095 91.1154 485.769 84.7704L483.541 81.9126C476.438 90.6673 467.669 97.8963 457.677 103.224L460.187 105.706C462.539 101.565 465.551 97.9325 469.188 94.8207C470.754 93.4766 468.697 90.8126 466.958 91.9629C455.729 99.446 443.826 105.888 431.395 111.204L433.244 114.34C445.527 106.76 458.57 100.451 472.177 95.5592L470.107 92.8954C466.554 99.4825 462.427 105.743 457.713 111.567C456.267 113.359 458.545 115.769 460.309 114.134C471.955 103.394 482.917 91.9387 493.13 79.8542L489.994 78.5707C489.651 82.6151 488.219 86.3929 485.929 89.7471L489.284 91.1516C490.864 86.1022 493.265 81.3921 496.374 77.0935L493.019 75.6887C491.648 81.6221 489.126 87.1194 485.537 92.0598L488.708 93.8882C490.778 89.6623 492.835 85.4364 494.905 81.1983C495.836 79.2972 496.669 77.3114 497.758 75.5072C498.53 74.2359 499.51 72.8918 501.151 73.0491L499.375 71.7171C500.93 76.3064 499.645 81.1014 499.021 85.7511C498.395 90.4008 498.848 94.9053 500.894 99.3493C502.73 103.369 505.426 107.05 506.6 111.337C507.776 115.623 506.895 120.624 504.138 124.305C501.09 128.374 496.032 130.505 490.974 130.287L492.565 133.024C500.11 120.624 508.56 108.794 517.879 97.6297L514.806 95.862C510.532 117.815 490.926 131.461 472.567 141.839L475.079 144.321C481.446 135.554 489.014 127.684 497.489 120.879L494.416 120.079C496.448 125.322 494.624 131.135 491.122 135.361C487.263 139.998 481.886 143.001 476.695 145.931L479.389 147.978C481.018 137.855 487.006 129.318 492.835 121.109C493.914 119.595 491.819 117.706 490.325 118.626C486.921 120.697 483.516 122.767 480.099 124.838L482.793 125.928C479.671 114.122 478.042 102.001 477.932 89.7955C477.907 87.4221 474.453 87.4949 474.257 89.7955C473.315 101.117 471.393 112.318 468.501 123.312L472.114 123.797C472.053 111.833 473.241 99.9184 475.703 88.2092L472.09 87.7249C471.306 99.991 469.848 112.209 467.717 124.329H471.258C470.156 116.313 469.372 108.249 468.845 100.173C468.71 98.1747 465.844 97.6541 465.232 99.6882L456.44 129.173H459.978C458.288 121.242 457.186 113.214 456.697 105.113C456.574 103.188 453.487 102.497 453.084 104.629C451.516 112.947 450.684 121.387 450.646 129.851L454.258 129.367C452.3 119.317 450.964 109.181 450.243 98.9738C450.071 96.5884 446.863 96.6974 446.568 98.9738C445.038 110.768 444.254 122.634 444.193 134.525H447.866C447.708 127.454 447.56 120.394 447.4 113.323C447.352 110.986 443.727 110.974 443.727 113.323C443.727 119.801 443.727 126.291 443.727 132.769C443.727 134.743 446.985 135.324 447.339 133.254C448.112 128.701 447.512 124.257 445.552 120.067C445.16 119.22 443.801 118.905 443.042 119.413C440.911 120.854 439.442 122.755 438.608 125.177L442.148 126.146C443.421 120.346 444.34 114.485 444.915 108.576C445.099 106.615 442.429 106.348 441.486 107.656C438.964 111.204 436.98 115.054 435.486 119.135C434.677 121.339 438.228 122.283 439.025 120.104C440.237 116.81 441.731 113.638 443.482 110.586C444.523 108.77 442.123 106.978 440.593 108.382C437.653 111.095 434.725 113.819 431.787 116.531L434.677 118.735C436.808 115.309 438.926 111.87 441.058 108.443C441.952 107.002 440.481 105.488 438.989 105.779C432.546 107.014 430.194 114.086 428.824 119.583C427.758 123.857 426.632 128.12 425.627 132.406C425.052 134.804 425.469 139.102 428.946 138.799C430.795 138.642 431.701 136.015 432.571 134.658C433.661 132.975 434.763 131.292 435.901 129.645C438.266 126.182 440.738 122.78 443.311 119.462C448.245 113.093 453.586 107.014 459.232 101.25C460.113 100.354 460.994 99.446 461.9 98.5864C461.926 98.5622 462.501 98.0899 462.465 98.0778C462.71 98.1626 462.796 99.2281 462.832 99.446C463.249 101.795 463.432 104.205 463.567 106.578C463.86 111.712 463.689 116.883 462.992 121.968L466.604 122.453C467.913 112.633 470.866 103.042 475.25 94.1426L471.894 93.7066C473.73 102.255 475.555 110.792 477.393 119.341C477.785 121.181 480.43 120.951 480.932 119.341C484.936 106.687 489.32 94.1424 494.072 81.7432L490.46 81.2589C491.648 90.4977 492.823 99.7246 494.011 108.963C494.304 111.228 497.562 111.361 497.685 108.963C497.98 103.163 497.967 97.3513 497.649 91.5513C497.514 89.2264 494.06 89.2022 493.975 91.5513C493.729 97.9688 493.999 104.386 494.795 110.768C495.077 113.032 498.395 113.165 498.469 110.768C498.751 102.086 499.314 93.428 500.134 84.7825L496.521 85.2668L498.97 100.1C499.265 101.856 502.193 101.819 502.511 100.1C503.649 94.094 504.334 88.0275 504.555 81.937H500.882C501.592 89.3353 502.302 96.7337 503.012 104.132C503.232 106.433 506.564 106.506 506.686 104.132C507.139 95.535 507.164 86.9378 506.772 78.3407C506.661 76.0157 503.099 75.9915 503.099 78.3407C503.099 83.4868 504.176 88.4514 506.197 93.1859C507.017 95.1112 510.09 93.7187 509.552 91.7814C507.261 83.6078 504.972 75.4345 502.682 67.2612C502.058 65.0089 498.506 65.9656 499.143 68.2299C501.04 75.0229 502.939 81.8036 504.838 88.5968L508.376 87.628C507.592 85.2789 506.808 82.9298 506.037 80.5687L502.682 81.9732C505.339 86.3808 507.238 91.1033 508.401 96.1041L511.94 95.1354C510.201 90.7763 508.463 86.4171 506.724 82.0581L503.649 83.8258C506.625 87.071 508.524 91.0064 509.318 95.305L512.859 94.3362C510.739 89.3232 509.833 84.0196 510.214 78.5949L506.785 79.5151C513.801 92.3988 512.233 109.303 502.816 120.649C501.335 122.428 503.832 124.995 505.413 123.215C510.593 117.403 516.299 110.065 514.071 101.831C513.704 100.475 512.001 100.112 510.996 101.032C499.031 112.051 485.562 121.363 471.013 128.737L473.241 131.595C479.414 123.712 486.455 116.604 494.22 110.247C500.93 104.738 508.842 97.1696 505.866 87.6038C505.497 86.4292 503.698 85.6665 502.791 86.8047C492.407 99.8215 480.552 111.627 467.46 121.981C465.844 123.252 467.987 126.037 469.69 124.838C479.376 117.96 487.899 109.726 495.101 100.33L491.929 98.5016C486.002 107.644 479.107 116.108 471.355 123.797L473.951 126.364C480.051 120.031 486.15 113.698 492.247 107.377L489.358 105.174C482.39 117.343 471.502 126.945 458.509 132.467L461.019 134.949C465.011 126.618 471.013 119.51 476.265 111.967C481.494 104.459 485.855 96.3946 489.345 87.955C491.328 83.1477 493.008 78.2196 494.378 73.2066L491.023 73.6424C491.781 74.7201 492.652 75.5677 493.815 76.2216C494.574 76.6454 495.406 76.4637 496.045 75.9432C497.453 74.7806 498.848 73.6061 500.256 72.4437L497.661 69.8766C486.382 80.7502 471.001 86.0901 459.489 96.6732C456.279 99.6277 453.464 103.006 451.272 106.772C450.071 108.842 453.072 110.441 454.444 108.6C460.334 100.718 466.396 92.6047 474.368 86.6351C478.409 83.6078 482.866 81.489 487.533 79.5878C492.199 77.6867 496.778 75.7615 500.709 72.5769L498.114 70.0098C493.265 75.1803 488.023 79.9511 482.401 84.298C480.54 85.739 483.161 88.294 484.997 86.8651C490.618 82.5182 495.86 77.7474 500.709 72.5769C502.351 70.8333 499.914 68.5446 498.114 70.0098C494.047 73.3033 488.991 75.0592 484.213 77.0449C479.437 79.0308 475.323 81.3072 471.367 84.3707C463.382 90.5825 457.272 98.7438 451.283 106.76L454.454 108.588C462.231 95.1839 477.528 88.96 489.92 80.6292C493.583 78.171 497.097 75.4951 500.269 72.4316C501.984 70.7727 499.449 68.3752 497.672 69.8645C496.264 71.0269 494.869 72.2016 493.461 73.364L495.689 73.0854C495.088 72.7463 494.612 72.3831 494.22 71.814C493.349 70.5668 491.292 70.6516 490.864 72.2499C488.487 80.9198 485.206 89.3112 480.98 97.2665C476.756 105.222 471.281 112.608 465.943 120.019C462.941 124.196 460.1 128.483 457.873 133.12C457.038 134.84 458.693 136.329 460.383 135.603C473.903 129.851 485.305 119.656 492.542 107.002C493.545 105.234 491.122 103.272 489.651 104.798C483.553 111.131 477.454 117.464 471.355 123.785C469.726 125.48 472.274 128.011 473.951 126.352C481.924 118.457 489.014 109.714 495.101 100.318C496.412 98.2957 493.313 96.6732 491.929 98.4895C485.132 107.353 476.965 115.2 467.829 121.69L470.057 124.547C483.149 114.195 495.004 102.388 505.388 89.3716L502.315 88.5724C505.095 97.4966 495.91 104.072 489.982 109.024C482.83 114.994 476.352 121.714 470.632 129.028C469.395 130.602 470.889 132.878 472.862 131.885C487.68 124.378 501.409 114.836 513.593 103.611L510.52 102.812C512.368 109.617 507.042 115.914 502.804 120.661L505.4 123.228C515.896 110.586 517.793 92.1325 509.944 77.6988C509.025 76.0157 506.637 76.9238 506.515 78.6191C506.123 84.3224 507.065 90.0497 509.295 95.3291C510.201 97.4603 513.274 96.7095 512.834 94.3604C511.928 89.4443 509.613 84.964 506.22 81.2831C505.034 79.9996 502.473 81.3435 503.147 83.0508C504.886 87.4101 506.625 91.7693 508.364 96.1283C509.221 98.2595 512.442 97.4966 511.902 95.1595C510.678 89.8803 508.621 84.8188 505.818 80.157C504.776 78.4375 501.788 79.5516 502.46 81.5615C503.244 83.9106 504.028 86.2598 504.8 88.621C505.535 90.8247 508.977 89.9286 508.34 87.6522C506.441 80.8592 504.543 74.0783 502.646 67.2853L499.105 68.2541C501.396 76.4275 503.685 84.6008 505.976 92.7741L509.331 91.3696C507.567 87.2527 506.724 82.8208 506.735 78.3527H503.061C503.453 86.9499 503.428 95.5592 502.975 104.144H506.65C505.94 96.7458 505.23 89.3474 504.519 81.9491C504.298 79.6483 500.93 79.5758 500.844 81.9491C500.637 87.7249 499.999 93.4645 498.922 99.1555H502.46L500.011 84.3224C499.657 82.1549 496.582 82.9177 496.399 84.8067C495.579 93.4522 495.014 102.11 494.734 110.792H498.408C497.611 104.411 497.343 98.0052 497.588 91.5755H493.914C494.232 97.3755 494.243 103.188 493.95 108.988H497.624C496.437 99.7488 495.261 90.5221 494.072 81.2831C493.815 79.2609 491.231 78.8008 490.46 80.7988C485.707 93.198 481.324 105.743 477.319 118.396H480.858C479.022 109.847 477.197 101.311 475.359 92.7621C475.041 91.2848 472.691 90.9337 472.004 92.3261C467.314 101.856 464.265 111.979 462.857 122.477C462.587 124.487 466.187 124.983 466.469 122.961C467.289 116.943 467.534 110.889 467.057 104.834C466.861 102.328 466.861 99.3008 465.881 96.9517C464.901 94.6027 462.343 93.864 460.187 95.2808C458.031 96.6974 456.096 99.1314 454.271 101.057C452.324 103.115 450.414 105.198 448.54 107.329C444.878 111.494 441.387 115.817 438.07 120.249C434.236 125.359 430.637 130.65 427.279 136.075L428.873 135.179C429.178 135.155 428.909 135.433 428.97 134.949C429.043 134.404 428.97 133.932 429.105 133.387C429.484 131.764 429.914 130.154 430.318 128.543C431.09 125.431 431.823 122.32 432.645 119.22C433.684 115.321 435.339 110.162 439.906 109.29L437.836 106.627C435.705 110.053 433.587 113.492 431.456 116.919C430.342 118.711 432.841 120.503 434.346 119.123C437.286 116.41 440.213 113.686 443.151 110.974L440.262 108.77C438.363 112.1 436.759 115.563 435.436 119.147L438.976 120.116C440.359 116.326 442.27 112.79 444.61 109.496L441.181 108.576C440.641 114.158 439.76 119.692 438.546 125.177C438.045 127.466 441.326 128.362 442.087 126.146C442.589 124.669 443.518 123.433 444.829 122.562L442.319 121.908C443.826 125.141 444.327 128.786 443.727 132.297L447.339 132.781C447.339 126.303 447.339 119.813 447.339 113.335H443.666C443.826 120.406 443.971 127.466 444.131 134.537C444.18 136.874 447.792 136.886 447.805 134.537C447.866 122.646 448.65 110.78 450.18 98.9859H446.507C447.255 109.508 448.637 119.983 450.646 130.347C451.051 132.394 454.248 131.873 454.258 129.863C454.296 121.714 455.055 113.613 456.574 105.609L452.962 105.125C453.476 113.541 454.614 121.908 456.378 130.154C456.77 131.97 459.428 131.788 459.917 130.154L468.71 100.669L465.097 100.185C465.637 108.588 466.493 116.967 467.645 125.31C467.89 127.078 470.889 127.018 471.184 125.31C473.363 112.875 474.883 100.33 475.69 87.737C475.825 85.7027 472.506 85.2426 472.078 87.2527C469.555 99.2766 468.294 111.531 468.366 123.809C468.366 125.831 471.454 126.303 471.981 124.293C474.944 112.984 476.902 101.456 477.859 89.8075H474.183C474.295 102.328 475.985 114.8 479.18 126.909C479.475 128.023 480.871 128.604 481.876 127.999C485.279 125.928 488.683 123.857 492.101 121.787L489.59 119.304C483.589 127.756 477.441 136.632 475.776 147.045C475.532 148.547 476.976 149.94 478.47 149.092C484.348 145.774 490.386 142.287 494.525 136.85C498.298 131.897 500.195 125.104 497.881 119.147C497.354 117.803 495.933 117.44 494.808 118.348C486.076 125.359 478.385 133.496 471.821 142.517C470.706 144.055 472.836 145.847 474.331 144.999C489.602 136.366 504.996 126.097 513.409 110.295C515.662 106.07 517.34 101.541 518.259 96.8427C518.564 95.2443 516.471 93.5491 515.186 95.0749C505.67 106.469 497 118.529 489.296 131.195C488.548 132.418 489.528 133.871 490.888 133.932C501.225 134.392 510.041 126.485 510.69 116.313C511.009 111.264 508.865 106.723 506.503 102.388C504.016 97.8356 501.946 93.6218 502.326 88.3182C502.743 82.4455 504.8 76.5848 502.816 70.7727C502.534 69.9493 501.898 69.5255 501.04 69.4407C496.473 69.0047 494.281 73.9331 492.652 77.2872C490.239 82.2154 487.838 87.1558 485.427 92.084C484.386 94.203 487.227 95.8135 488.599 93.9123C492.346 88.7421 495.014 82.8693 496.448 76.6696C496.926 74.587 494.293 73.6182 493.092 75.2651C489.798 79.8058 487.301 84.843 485.623 90.183C484.986 92.2294 487.851 93.2222 488.978 91.5876C491.648 87.6885 493.153 83.2567 493.545 78.5707C493.68 77.0572 491.402 76.1005 490.411 77.2872C480.198 89.3837 469.237 100.827 457.59 111.567L460.187 114.134C465.11 108.068 469.458 101.589 473.155 94.7359C473.854 93.4401 472.678 91.4907 471.085 92.0719C457.173 97.0606 443.826 103.466 431.273 111.216C429.216 112.487 431.003 115.26 433.122 114.352C445.552 109.036 457.455 102.594 468.685 95.1112L466.457 92.2536C462.611 95.5471 459.378 99.4825 456.88 103.878C455.961 105.488 457.786 107.22 459.39 106.36C469.629 100.899 478.715 93.4401 486.002 84.4797C487.202 83.0025 485.659 80.387 483.773 81.6221C473.854 88.1365 464.375 95.305 455.411 103.067C453.598 104.629 456.195 107.05 458.007 105.634C461.24 103.115 464.484 100.597 467.717 98.0778L465.123 95.5108C460.235 99.4704 456.048 104.181 452.654 109.46C451.613 111.083 453.622 112.717 455.165 111.942C465.441 106.796 474.282 99.2887 481.104 90.1224C482.365 88.4272 479.659 86.5019 478.213 87.9187C470.425 95.5955 463.896 104.471 458.962 114.195C458.031 116.023 460.273 117.815 461.852 116.398C469.873 109.133 477.258 101.226 483.945 92.7379L480.87 90.9699C477.747 98.9618 475.776 107.317 474.906 115.841C474.699 117.863 477.368 117.997 478.335 116.761C483.711 109.847 486.797 101.456 487.349 92.7621C487.459 90.9458 484.778 90.3162 483.92 91.8418C478.765 101.045 475.152 111.022 473.29 121.387C472.971 123.131 474.956 124.463 476.364 123.155C484.091 115.987 489.554 106.59 491.916 96.3705C492.321 94.5904 490.215 93.3432 488.843 94.6027C482.39 100.548 476.841 107.402 472.371 114.921C471.477 116.422 473.327 118.457 474.883 117.403C482.474 112.269 489.1 106.009 494.648 98.7559C495.91 97.1092 493.153 95.0507 491.758 96.5522C484.483 104.374 480.135 114.4 479.376 124.983C479.292 126.206 480.613 126.993 481.703 126.739C490.791 124.547 498.176 117.185 500.294 108.177C500.599 106.881 499.423 105.525 498.028 105.936C488.146 108.927 481.018 118.42 481.066 128.652C481.066 130.36 483.014 130.868 484.202 129.936C487.202 127.599 489.786 124.777 491.819 121.593C493.398 119.123 496.117 114.764 492.652 112.572C489.933 110.865 486.578 112.705 484.348 114.328C481.433 116.459 478.961 119.171 477.21 122.307C475.764 124.899 473.951 129.173 477.307 131.171C478.801 132.055 480.896 132.091 482.597 132.2C484.679 132.333 486.761 132.249 488.818 131.946C495.824 130.892 502.633 126.109 503.759 118.796C504.298 115.333 503.379 110.998 499.853 109.387C496.766 107.983 492.42 110.15 492.664 113.771C492.738 114.812 493.448 115.502 494.5 115.587C496.093 115.708 497.404 114.933 498.237 113.613C499.497 111.627 496.325 109.799 495.065 111.785H495.2Z" fill="#CFBAD3"/>
<path d="M493.202 7.46792C497.097 13.3043 504.591 51.5437 503.331 62.2962C537.277 109.629 527.799 145.834 440.028 167.908C442.026 166.479 444.315 165.172 443.666 163.113C464.741 156.902 479.585 147.881 492.125 137.576C524.664 110.84 517.635 100.911 502.926 68.9438L431.505 114C428.639 112.935 430.39 101.347 430.734 98.937C444.536 95.9342 429.461 102.606 438.89 102.751C460.199 91.2724 487.619 81.5611 493.153 64.1972C500.33 41.7356 476.83 8.36396 493.191 7.45581L493.202 7.46792Z" fill="#020104"/>
<path d="M469.334 126.23C461.999 129.887 453.83 132.829 448.54 137.527C453.12 152.034 426.312 162.217 443.653 163.113C444.302 165.171 442.013 166.479 440.017 167.908C433.6 172.497 429.962 173.611 429.595 173.975C429.02 166.128 437.678 159.783 416.529 168.198C419.271 150.048 407.245 121.616 450.218 109.253L434.138 125.842C447.255 110.779 505.497 90.6664 456.402 117.959C455.434 123.881 470.731 115.32 476.645 115.804L469.323 126.218L469.334 126.23Z" fill="#4E4C75"/>
<path d="M493.202 7.46765C476.841 8.37581 500.33 41.7354 493.166 64.209C480.392 65.65 465.171 67.0789 460.836 72.334C449.617 66.873 478.287 68.1686 453.084 61.8722C461.35 43.1641 475.825 23.4512 476.609 4.84006C478.004 3.2175 473.791 -0.802599 481.924 0.141881C484.801 9.53824 488.182 -0.0760752 493.215 7.47975L493.202 7.46765Z" fill="#BBBFC9"/>
<path d="M529.134 191.473C505.497 226.649 456.134 223.961 415.009 249.884C414.826 248.54 404.551 255.079 409.768 225.378C428.249 173.806 415.989 217.688 420.423 243.528C466.678 215.496 512.467 215.896 530.126 174.835C536.849 159.19 528.558 152.276 538.049 154.432C543.046 167.013 536.923 179.86 529.134 191.461V191.473Z" fill="#020104"/>
<path d="M545.337 200.759L541.992 200.565C534.105 197.235 535.636 200.117 535.307 200.178C532.55 200.613 531.926 197.429 528.668 198.954C525.998 200.203 522.655 211.039 483.406 227.18C482.708 227.326 477.699 225.97 469.799 230.558C476.56 233.647 480.453 228.404 483.406 227.18C488.77 226.055 497.379 224.444 503.649 225.026C521.479 226.405 483.48 233.053 477.895 235.197C466.469 239.592 460.26 245.791 450.18 250.259C449.887 250.393 448.319 246.808 441.828 249.776C441.56 249.896 439.832 248.842 435.044 251.047C421.72 257.198 422.921 264.379 415.376 271.596C413.418 264.475 416.651 261.145 414.801 253.202C414.666 252.645 415.009 252.089 414.899 251.543C414.788 250.986 415.07 250.441 414.997 249.884C456.121 223.959 505.474 226.647 529.121 191.471C535.183 193.663 540.144 198.471 545.324 200.759H545.337Z" fill="#A1A2BC"/>
<path d="M492.125 137.576C479.572 147.88 464.741 156.913 443.666 163.113C426.312 162.229 453.133 152.045 448.553 137.527C453.83 132.829 462.012 129.874 469.346 126.23C516.777 102.581 478.065 135.808 478.727 137.624C479.695 140.288 485.181 133.689 492.138 137.576H492.125Z" fill="#856898"/>
<path d="M493.166 64.2086C487.619 81.5724 460.21 91.2716 438.902 102.763C429.473 102.617 444.549 95.9455 430.746 98.9485C432.485 86.4039 441.486 79.7805 442.062 77.9157C443.556 77.8188 448.614 76.7775 448.846 76.6443C451.86 74.8401 456.671 73.2659 449.141 71.6555C450.623 68.4951 451.674 65.0441 453.072 61.8716C478.274 68.1682 449.605 66.8726 460.823 72.3336C465.159 67.0783 480.381 65.6496 493.153 64.2086H493.166Z" fill="#60597B"/>
<path d="M497.476 76.1364C507.139 73.9811 492.713 96.0067 487.777 98.1016C477.368 102.521 494.207 88.7899 469.359 97.8594L497.476 76.1364Z" fill="#888788"/>
<path d="M511.976 142.068C515.639 138.121 528.51 123.118 522.349 136.837C521.321 139.138 513.63 140.942 511.976 142.068Z" fill="#5B3D70"/>
<path d="M471.869 168.102C477.92 169.495 465.551 174.532 464.792 174.362C458.741 172.97 471.11 167.932 471.869 168.102Z" fill="#5B3D70"/>
<path d="M509.491 183.649C509.087 183.976 511.057 186.628 500.747 189.813C495.126 186.143 507.519 184.715 509.491 183.649Z" fill="#F9F0ED"/>
<path d="M540.829 224.759C567.869 241.432 404.379 309.46 414.678 262.272C419.454 260.068 441.573 249.909 441.83 249.788C441.155 249.788 437.187 256.169 439.76 256.338C443.752 256.605 448.711 249.836 441.83 249.788C448.319 246.833 449.887 250.405 450.18 250.272C460.271 245.804 466.48 239.604 477.895 235.209C483.467 233.065 521.479 226.405 503.649 225.038C518.956 217.736 525.46 210.628 535.307 200.19C535.637 200.142 534.105 197.248 541.992 200.578C546.744 207.721 550.026 213.606 550.823 221.127C550.884 221.683 550.7 222.229 550.724 222.785C550.884 227.024 547.674 230.183 546.683 234.228C535.208 252.645 507.213 266.026 477.087 276.887C503.147 261.327 538.588 247.511 540.548 224.686C520.794 252.766 472.175 244.593 445.552 271.704C440.715 269.973 452.385 254.74 455.093 252.233C461.791 248.202 483.81 243.818 487.827 237.46C473.89 240.536 462.391 245.489 455.093 252.233" fill="#CFBAD3"/>
<path d="M535.317 200.178C525.473 210.616 518.969 217.734 503.662 225.024C497.392 224.442 488.782 226.053 483.418 227.18C522.668 211.039 526.023 200.201 528.681 198.954C531.926 197.429 532.55 200.613 535.317 200.178Z" fill="#60597B"/>
<path d="M448.834 76.6328C443.971 72.8671 448.087 73.8721 449.128 71.644C456.646 73.2545 451.847 74.8286 448.834 76.6328Z" fill="#888FB8"/>
<path d="M486.247 119.643C485.524 124.256 485.17 128.894 485.254 133.556C485.279 134.645 486.43 135.735 487.581 135.311C491.463 133.858 494.11 130.977 496.559 127.78C499.008 124.583 501.114 121.29 504.591 119.328L502.081 116.846C499.375 122.646 494.304 126.678 489.357 130.565L492.247 132.769C497.893 122.525 497.404 110.561 495.897 99.3486C495.592 97.1084 492.26 96.9269 492.224 99.3486C492.101 106.929 491.452 114.497 490.239 121.992C489.872 124.28 493.41 125.261 493.779 122.961C495.04 115.151 495.762 107.268 495.885 99.3486H492.211C493.619 109.859 494.367 121.302 489.063 130.928C488.011 132.841 490.373 134.367 491.954 133.132C497.134 129.063 502.424 124.753 505.253 118.674C505.988 117.088 504.445 115.235 502.743 116.192C499.288 118.141 496.901 121.265 494.574 124.365C492.42 127.235 490.116 130.492 486.603 131.812L488.93 133.568C488.856 129.233 489.113 124.91 489.785 120.624C490.141 118.335 486.603 117.354 486.247 119.655V119.643Z" fill="#CFBAD3"/>
<path opacity="0.11" d="M482.451 119.401C485.511 118.965 488.574 118.529 491.648 118.093C497.354 111.966 503.074 105.827 508.781 99.6997C501.935 105.5 495.088 111.3 488.243 117.1L509.173 103.078C490.325 110.38 472.849 120.006 456.745 131.957C456.01 132.454 455.887 132.635 456.88 132.793L459.329 132.696C462.183 132.345 465.036 131.945 467.865 131.473C472.248 130.783 476.622 130.068 480.969 129.233C482.696 128.906 485.096 128.7 486.517 127.526C492.26 123.045 497.832 118.371 503.232 113.504C504.848 111.445 506.38 109.314 507.813 107.135C508.597 106.408 508.462 106.154 507.409 106.384C505.118 107.147 502.926 108.127 500.833 109.314C496.717 111.385 492.626 113.516 488.574 115.707C486.394 116.749 484.337 117.984 482.413 119.413L482.451 119.401Z" fill="white"/>
<path opacity="0.11" d="M495.531 118.542L495.457 120.491C499.497 113.166 503.552 105.84 507.592 98.514C502.816 105.925 498.028 113.347 493.252 120.758C498.359 114.219 503.466 107.668 508.585 101.129C500.637 108.116 492.688 115.103 484.74 122.09L502.903 109.824C495.579 114.074 488.243 118.312 480.919 122.562C487.324 119.317 493.729 116.072 500.123 112.814C491.832 115.829 483.823 119.414 476.095 123.579C469.591 127.018 463.445 131.05 457.664 135.664C456.831 136.208 456.916 136.475 457.909 136.475C460.1 136.22 462.244 135.748 464.339 135.034C468.404 133.896 472.445 132.709 476.474 131.45C478.617 130.905 480.674 130.142 482.647 129.161L492.823 123.24L492.028 123.579L494.146 122.731C495.149 122.332 495.897 121.617 496.399 120.588C498.591 117.488 500.698 114.34 502.743 111.131C504.825 107.959 506.833 104.738 508.756 101.468C509.491 100.597 509.833 99.6159 509.772 98.5504C509.906 96.9519 509.71 95.4021 509.196 93.8884C508.229 94.385 507.531 95.16 507.127 96.2255C505.755 98.5382 504.433 100.887 503.171 103.273C501.554 106.215 499.975 109.194 498.445 112.185C497.269 114.219 496.302 116.338 495.554 118.554L495.531 118.542Z" fill="white"/>
<path opacity="0.11" d="M488.991 118.408L488.635 120.176L489.994 118.154L488.072 120.031L489.284 119.026L486.871 120.212L487.924 119.982C484.875 119.486 481.937 118.348 478.9 117.875C476.634 117.512 474 118.045 471.66 118.105C461.055 118.36 461.472 121.387 448.209 129.802C447.474 130.262 447.425 130.844 448.258 131.243C449.091 131.643 452.165 131.607 452.949 131.086C458.692 127.272 464.448 123.457 470.191 119.631L465.833 120.164C468.954 120.455 472.078 120.66 475.214 120.806L482.464 122.513C484.251 122.852 485.353 123.143 487.006 122.658C489.933 121.798 491.44 119.74 492.003 116.919C492.137 116.228 491.391 115.914 490.852 116.035C490.165 116.18 489.113 117.778 488.991 118.42V118.408Z" fill="white"/>
<path opacity="0.11" d="M490.19 129.959L489.811 132.151C491.183 129.524 492.555 126.884 493.937 124.256L488.378 128.615L485.022 129.003C480.736 129.511 476.499 129.959 472.177 130.117C469.983 130.19 469.458 130.117 467.816 130.977C460.958 134.621 452.005 141.075 447.586 143.933C446.654 144.538 447.487 145.216 448.184 145.253C449.605 145.325 451.761 143.933 452.888 143.182C458.387 139.489 463.885 135.808 469.384 132.115L465.097 134.052C468.244 134.391 471.38 134.754 474.527 135.13C477.38 134.924 480.198 135.13 482.978 135.759C485.305 135.929 487.532 136.038 489.444 134.403C490.631 133.386 491.292 132.611 492.101 131.243C492.97 129.729 493.779 128.179 494.525 126.593C495.236 125.285 495.615 123.881 495.653 122.392C495.872 120.987 495.396 120.502 494.342 121.75C493.522 123.045 492.774 124.389 492.101 125.77C491.391 127.126 490.753 128.531 490.203 129.959H490.19Z" fill="white"/>
<path opacity="0.11" d="M493.889 121.362L493.803 123.263C499.044 113.843 504.286 104.422 509.54 95.0017L488.158 124.523C495.628 116.325 503.099 108.128 510.568 99.93C501.554 107.655 492.542 115.393 483.528 123.118L505.744 107.074C497.097 112.559 488.451 118.057 479.793 123.542C487.619 119.183 495.444 114.812 503.257 110.452C493.545 114.751 484.068 119.498 474.845 124.704C468.356 128.313 462.183 132.43 456.341 137.055C455.312 137.697 455.411 137.963 456.61 137.854C459.293 137.358 461.913 136.631 464.484 135.687C469.469 134.089 474.43 132.43 479.364 130.71C481.985 129.923 484.508 128.918 486.945 127.707L492.443 124.583C493.619 123.966 494.513 123.045 495.126 121.822C497.857 117.948 500.515 114.012 503.099 110.041C505.719 106.093 508.279 102.085 510.752 98.041C511.634 96.9876 512.124 95.801 512.21 94.4932C512.246 92.8586 511.989 91.2845 511.438 89.7466C510.311 90.4489 509.478 91.4418 508.952 92.7132C506.503 96.8059 504.127 100.947 501.836 105.125C499.497 109.278 497.232 113.48 495.052 117.718C494.243 118.844 493.853 120.067 493.853 121.387L493.889 121.362Z" fill="white"/>
<path opacity="0.11" d="M506.159 106.518C502.119 110.586 498.064 114.667 494.024 118.735C499.301 111.397 504.58 104.072 509.858 96.7338C504.359 103.684 498.861 110.635 493.362 117.597C498.738 111.337 504.115 105.077 509.478 98.8164C503.379 105.258 497.269 111.712 491.17 118.154C497.061 112.511 502.951 106.869 508.855 101.226C500.857 107.256 492.873 113.286 484.875 119.316C491.967 115.054 499.069 110.78 506.159 106.518C488.561 113.153 472.335 122.126 457.481 133.423C456.709 133.944 456.659 134.15 457.664 134.246L460.174 133.992C463.102 133.459 466.004 132.878 468.906 132.224C473.376 131.256 477.846 130.275 482.278 129.161C484.103 128.701 486.418 128.362 487.899 127.102C504.481 112.935 500.844 118.372 508.878 106.227C509.588 105.549 509.601 105.295 508.89 105.476C507.885 105.488 506.979 105.839 506.147 106.53L506.159 106.518Z" fill="white"/>
<path opacity="0.11" d="M491.292 125.491L491.157 127.392C494.281 121.847 497.392 116.288 500.515 110.743C496.498 116.434 492.468 122.125 488.451 127.816C491.967 123.433 495.493 119.049 499.008 114.666C495.04 118.468 490.533 121.58 485.524 124.014C487.754 122.67 489.981 121.326 492.211 119.982C486.002 122.549 479.745 124.995 473.437 127.332C465.991 130.274 459.097 134.294 452.753 139.368C451.969 139.574 451.468 140.022 451.221 140.712C451.86 141.075 452.545 141.075 453.268 140.712C455.569 140.022 457.835 139.247 460.088 138.375C462.353 137.563 464.571 136.667 466.775 135.687C472.849 132.066 478.923 128.446 484.997 124.825C479.89 126.569 474.771 128.325 469.665 130.068C474.074 130.08 478.261 130.177 482.647 129.741H481.96C484.826 130.08 487.104 130.226 489.823 129.354C490.656 129.172 491.28 128.676 491.697 127.865C492.921 126.254 494.085 124.607 495.212 122.924C496.643 120.854 498.041 118.747 499.4 116.627C500.452 115.199 501.297 113.673 501.946 112.026C502.473 110.549 502.534 109.047 502.142 107.522C502.264 106.711 502.007 106.577 501.383 107.11C500.207 108.466 499.217 109.956 498.42 111.578C496.705 114.557 495.065 117.56 493.461 120.587C492.517 122.125 491.794 123.76 491.28 125.479L491.292 125.491Z" fill="white"/>
<path opacity="0.11" d="M491.341 121.617L490.936 123.481L493.092 119.897C489.075 124.402 485.488 120.939 481.041 120.575C478.788 120.394 476.4 120.939 474.122 121.072C464.069 121.665 460.676 126.751 450.23 133.398C449.459 133.895 449.666 134.549 450.45 134.827C451.442 135.166 454.21 134.694 455.08 134.125C460.848 130.286 466.604 126.436 472.371 122.597L468.012 123.699C472.531 123.99 476.988 124.087 481.41 125.092C484.19 125.721 486.529 126.932 489.32 125.988C492.677 124.85 494.047 121.944 494.795 118.759C494.991 117.899 494.133 117.681 493.545 118.008C492.626 118.529 491.562 120.612 491.353 121.605L491.341 121.617Z" fill="white"/>
<path opacity="0.11" d="M493.448 125.068L493.337 126.982L505.082 103.757C500.38 111.458 495.663 119.147 490.961 126.848C495.885 119.971 500.795 113.081 505.719 106.203C497.857 113.323 490.007 120.443 482.143 127.563C488.413 122.901 494.673 118.239 500.943 113.577C484.949 121.436 469.603 130.372 454.884 140.35C454.186 140.943 454.296 141.209 455.215 141.137C457.198 140.725 459.12 140.083 460.958 139.223C464.558 137.795 468.134 136.305 471.686 134.767C473.597 134.065 475.397 133.157 477.087 132.043C483.026 127.999 488.966 123.966 494.905 119.922C487.57 123.252 480.234 126.582 472.898 129.924C475.384 129.766 477.859 129.742 480.344 129.851C484.727 129.512 489.063 128.858 493.349 127.89C494.329 127.357 495.04 126.534 495.444 125.432C497.404 122.005 499.278 118.53 501.078 115.018C502.926 111.531 504.69 107.995 506.368 104.423C507.029 103.454 507.299 102.413 507.164 101.311L506.711 98.9861C505.731 99.5431 505.057 100.391 504.665 101.505C503.331 103.963 502.045 106.445 500.82 108.964C499.24 112.088 497.722 115.224 496.228 118.384C495.076 120.54 494.146 122.768 493.436 125.093L493.448 125.068Z" fill="white"/>
<path opacity="0.11" d="M494.194 118.783L494.121 120.696C499.326 112.014 504.519 103.332 509.723 94.6506C502.646 103.853 495.579 113.056 488.5 122.246C495.922 114.739 503.356 107.232 510.777 99.724C501.788 106.88 492.799 114.025 483.823 121.181L506.001 106.699C488.354 114.339 471.833 123.845 456.452 135.215C455.398 135.796 455.485 136.075 456.684 136.038C459.367 135.699 461.987 135.13 464.57 134.331C469.58 133.023 474.564 131.655 479.524 130.214C482.156 129.584 484.704 128.725 487.178 127.659C490.827 124.547 494.243 121.193 497.109 117.366C500.808 112.426 504.42 107.401 507.874 102.291C509.295 100.196 511.462 97.8108 512.246 95.365C512.81 93.6091 512.05 91.3327 511.622 89.686C510.52 90.2793 509.7 91.1754 509.16 92.3619C506.734 96.1156 504.384 99.9178 502.106 103.768C499.792 107.595 497.55 111.457 495.383 115.369C494.586 116.41 494.182 117.548 494.182 118.783H494.194Z" fill="white"/>
<path opacity="0.11" d="M494.551 122.779L494.439 124.693C497.796 118.069 501.162 111.434 504.519 104.81C500.33 111.518 496.129 118.227 491.941 124.935C496.264 119.111 500.587 113.274 504.911 107.45C498.922 113.347 492.945 119.244 486.957 125.141C491.562 120.975 496.167 116.798 500.772 112.632C495.885 116.265 490.987 119.898 486.099 123.53C490.104 120.769 494.11 118.009 498.125 115.26C492.835 118.251 487.545 121.23 482.268 124.22C486.443 122.053 490.607 119.886 494.782 117.706C488.219 120.6 481.667 123.482 475.102 126.376C468.624 130.299 462.208 134.307 455.851 138.424C455.238 138.945 455.337 139.211 456.145 139.223C457.909 138.981 459.599 138.521 461.251 137.831C464.448 136.729 467.633 135.578 470.779 134.356C472.482 133.823 474.074 133.084 475.568 132.14C481.532 128.216 487.496 124.293 493.448 120.37L473.903 128.071C478.128 127.889 482.169 127.805 486.369 127.223L485.623 127.32C488.538 127.611 490.386 127.672 493.153 126.751C494.072 126.424 494.734 125.782 495.149 124.838C496.473 122.876 497.746 120.878 498.959 118.856C500.515 116.35 502.032 113.819 503.514 111.264C504.654 109.545 505.584 107.716 506.294 105.791C506.515 103.297 506.454 102.933 505.988 100.451C505.095 100.875 504.482 101.577 504.138 102.558C502.975 104.653 501.874 106.784 500.821 108.927C499.461 111.591 498.15 114.279 496.89 116.992C495.885 118.832 495.113 120.757 494.551 122.767V122.779Z" fill="white"/>
<path opacity="0.11" d="M490.631 133.277L490.411 134.912L493.265 128.604C491.832 130.214 490.08 130.626 488.023 130.868C484.422 131.304 480.736 131.413 477.111 131.594C475.532 131.703 473.951 131.752 472.36 131.74C471.319 131.437 470.351 131.51 469.458 131.933C469.127 132.054 468.809 132.212 468.501 132.406C461.961 136.123 455.618 140.167 449.495 144.563C448.907 144.938 448.087 145.652 448.968 146.27C449.752 146.815 451.822 145.447 452.41 145.059C457.921 141.463 463.432 137.867 468.931 134.258L466.505 135.179C469.555 135.53 472.592 135.917 475.629 136.329L480.588 136.511C483.711 136.813 487.471 138.339 490.399 136.486C493.031 134.815 494.428 130.614 494.721 127.683C494.831 126.545 494.171 126.218 493.387 127.09C492.786 128.046 492.26 129.052 491.819 130.093C491.328 131.122 490.925 132.175 490.607 133.253L490.631 133.277Z" fill="white"/>
<path opacity="0.11" d="M526.17 153.196L527.161 153.85C524.982 150.532 522.803 147.215 520.621 143.909L526.451 154.335C524.811 150.859 523.169 147.372 521.54 143.897C521.627 149.83 521.713 155.751 521.785 161.684L523.854 150.133C522.655 155.303 521.443 160.462 520.242 165.632C521.199 163.028 522.153 160.425 523.108 157.822C521.332 162.399 519.557 166.964 517.78 171.541L519.214 168.623C517.806 171.117 516.398 173.612 514.99 176.094L516.802 173.369C515.112 175.719 513.422 178.068 511.732 180.416C511.498 180.852 511.597 180.962 512.037 180.719C512.956 180.066 513.789 179.326 514.547 178.503C516.079 177.002 517.584 175.489 519.068 173.939C519.888 173.176 520.621 172.328 521.26 171.42C522.691 167.957 523.783 164.385 524.529 160.716C524.921 156.877 524.946 153.039 524.628 149.2C523.732 153.487 522.826 157.785 521.932 162.072C523.157 161.164 524.223 160.11 525.153 158.912C526.464 157.555 527.247 155.933 527.53 154.044C527.566 153.535 527.418 153.063 527.064 152.639C526.158 151.077 525.214 149.539 524.236 148.026C523.279 146.5 522.276 144.999 521.235 143.521C521.003 143.025 520.634 142.686 520.158 142.504L518.271 141.959C518.271 142.48 518.455 142.952 518.847 143.364C519.57 144.454 520.316 145.532 521.087 146.597C522.031 147.929 522.999 149.261 523.989 150.569C524.628 151.525 525.361 152.397 526.17 153.196Z" fill="white"/>
<path opacity="0.11" d="M527.469 155.811L528.423 156.501C526.133 152.808 523.844 149.127 521.553 145.434L527.591 156.925L522.704 146.523L525.974 156.368L523.169 146.79C522.95 152.263 522.716 157.724 522.497 163.197L524.21 152.214C523.034 157.518 521.858 162.822 520.684 168.137C521.736 164.698 522.79 161.272 523.844 157.833C522.044 162.882 520.242 167.919 518.442 172.969L522.961 163.27L515.675 177.474L520.023 170.293C517.512 174.119 515 177.945 512.478 181.76C512.319 182.002 511.719 182.74 511.902 183.092C512.05 183.382 513.715 181.433 513.765 181.373C515 179.895 516.189 178.381 517.365 176.868C518.284 175.681 519.557 174.361 520.145 172.957C521.064 170.099 521.97 167.253 522.889 164.396L522.619 164.723C523.905 163.851 525.055 162.822 526.048 161.635C527.456 160.303 528.375 158.668 528.79 156.755C528.828 156.198 528.655 155.69 528.289 155.229C527.334 153.498 526.341 151.791 525.313 150.107C524.297 148.412 523.256 146.741 522.166 145.094C521.92 144.562 521.553 144.174 521.039 143.932L519.213 143.302C519.213 143.871 519.422 144.38 519.814 144.84C520.573 146.063 521.344 147.262 522.153 148.448C523.146 149.938 524.149 151.415 525.178 152.88C525.84 153.934 526.598 154.927 527.456 155.835L527.469 155.811Z" fill="white"/>
<path opacity="0.11" d="M528.767 155.605L524.577 160.182C523.317 160.727 522.24 161.502 521.333 162.507C520.242 163.331 519.569 164.457 519.325 165.861C516.937 171.77 513.335 177.013 508.56 181.579C508.328 181.833 508.241 182.196 508.633 182.365C509.025 182.536 509.588 181.917 509.797 181.688C513.251 177.776 516.423 173.962 518.834 169.288L521.051 164.662C522.41 163.476 523.892 162.471 525.496 161.623C526.586 160.897 528.449 159.54 529.304 158.463C530.371 157.094 530.48 157.034 529.918 155.714C529.758 155.351 528.668 154.794 528.79 155.605H528.767Z" fill="white"/>
<path opacity="0.11" d="M528.105 161.926L528.877 162.846L526.99 158.971C526.598 162.168 524.37 164.311 522.301 166.673C520.929 168.235 521.247 167.956 520.132 170.402C517.352 176.517 513.776 181.567 509.441 186.87C509.099 187.281 508.132 188.36 508.204 188.952C508.241 189.267 508.486 189.571 508.829 189.196C511.401 186.591 513.74 183.782 515.822 180.779C518.1 177.001 520.634 173.393 523.452 169.978C525.277 168.331 527.675 166.975 528.902 164.747C529.587 163.5 529.747 162.907 529.22 161.744C528.645 160.473 527.897 159.31 527.077 158.184C526.611 157.555 526.402 158.015 526.427 158.499C526.451 159.444 527.53 161.175 528.129 161.89L528.105 161.926Z" fill="white"/>
<path opacity="0.11" d="M526.685 156.405L528.057 157.386C525.349 152.373 522.655 147.372 519.949 142.359C520.524 149.915 521.1 157.483 521.662 165.038C522.423 160.098 523.182 155.146 523.941 150.205C522.63 156.332 521.321 162.472 520.01 168.598C521.344 164.36 522.68 160.122 524.027 155.884C521.97 161.733 519.911 167.593 517.841 173.442L523.586 161.394C520.769 166.915 517.94 172.437 515.123 177.958C516.948 174.968 518.785 171.989 520.611 168.998C517.732 173.418 514.842 177.837 511.963 182.257C511.767 182.561 510.996 183.432 511.169 183.867C511.253 184.086 513.348 181.725 513.422 181.652C514.964 179.8 516.446 177.897 517.928 175.997C519.005 174.604 520.855 172.812 521.456 171.117C522.876 167.666 523.953 164.106 524.689 160.437C525.068 156.611 525.081 152.797 524.75 148.97C523.77 154.492 522.802 160.013 521.823 165.535C522.838 164.929 523.721 164.179 524.48 163.283C526.17 161.672 527.37 159.711 528.067 157.398C528.093 156.756 527.922 156.163 527.542 155.606C526.537 153.523 525.496 151.465 524.419 149.43C523.353 147.384 522.263 145.35 521.125 143.34C520.88 142.71 520.488 142.226 519.949 141.875L518.002 141.281C518.014 141.935 518.233 142.54 518.638 143.085C519.435 144.551 520.255 146.004 521.112 147.432C522.153 149.237 523.218 151.029 524.297 152.809C524.994 154.08 525.791 155.291 526.685 156.429V156.405Z" fill="white"/>
<path opacity="0.11" d="M526.537 154.104L527.504 154.746L520.341 143.46L526.721 155.109C524.895 151.186 523.085 147.25 521.26 143.327C521.492 149.733 521.725 156.15 521.957 162.556C522.581 158.269 523.207 153.983 523.831 149.696C522.68 155.242 521.54 160.8 520.389 166.346L523.207 157.615C521.456 162.52 519.704 167.423 517.953 172.327L522.533 162.992C519.213 168.731 515.896 174.459 512.589 180.198C512.406 180.464 511.67 181.204 511.829 181.602C511.927 181.869 513.911 179.86 513.972 179.787C515.443 178.237 516.863 176.638 518.271 175.028C519.239 173.926 521.148 172.315 521.639 170.887C523.022 167.399 524.063 163.803 524.762 160.122C525.055 156.284 525.007 152.445 524.59 148.619C523.77 153.402 522.937 158.185 522.116 162.968C523.378 162.084 524.48 161.042 525.411 159.831C526.746 158.475 527.566 156.865 527.909 154.976C527.922 154.407 527.749 153.886 527.37 153.414C526.366 151.646 525.325 149.914 524.248 148.195C523.194 146.463 522.092 144.756 520.965 143.073C520.708 142.528 520.328 142.128 519.801 141.886L517.867 141.341C517.892 141.923 518.111 142.443 518.516 142.903C519.312 144.138 520.132 145.361 520.977 146.572C522.018 148.086 523.072 149.6 524.149 151.089C524.847 152.166 525.643 153.159 526.525 154.092L526.537 154.104Z" fill="white"/>
<path opacity="0.11" d="M527.26 158.996L528.215 159.819L524.297 151.973C525.165 154.358 526.048 156.756 526.917 159.141L524.824 152.457C523.892 156.792 522.961 161.127 522.018 165.462L524.076 159.505L519.74 170.499L522.202 164.905C520.476 168.392 518.75 171.892 517.022 175.379L519.839 170.124L513.373 181.167L516.545 176.202C513.715 179.145 511.413 182.402 509.613 185.974C509.514 186.314 509.637 186.41 509.944 186.241C510.555 185.78 511.082 185.247 511.535 184.617C512.233 183.794 512.92 182.946 513.592 182.088C514.145 181.408 514.671 180.719 515.16 180.004C517.266 173.962 520.659 168.998 525.361 165.087C527.125 163.343 528.179 161.999 528.607 159.65C528.779 158.717 527.003 155.727 526.771 155.23C526.255 154.153 525.534 151.61 524.48 151.028L523.108 150.253C521.945 149.599 523.856 153.075 523.684 152.736C524.394 154.153 525.142 155.557 525.913 156.937C526.267 157.7 526.721 158.39 527.273 159.02L527.26 158.996Z" fill="white"/>
<path opacity="0.11" d="M528.118 155.145C529.243 157.809 525.056 161.091 523.525 162.556C522.815 163.125 522.166 163.755 521.578 164.433C519.043 171.383 515.161 177.509 509.932 182.802C508.988 183.88 509.662 184.473 510.617 183.407C512.969 180.791 515.148 178.297 517.169 175.428C519.264 171.722 521.639 168.211 524.32 164.893C525.46 164.118 526.525 163.258 527.517 162.314C528.436 161.478 529.439 160.619 530.076 159.541C531.155 157.7 530.921 157.809 529.954 156.187C529.783 155.908 528.974 154.613 528.558 154.649C528.289 154.673 527.922 154.673 528.118 155.145Z" fill="white"/>
<path opacity="0.11" d="M527.578 158.875L528.546 159.637C526.453 155.411 524.358 151.185 522.263 146.96C522.189 153.825 522.117 160.691 522.044 167.557C522.851 163.464 523.671 159.383 524.48 155.29L520.035 171.334L523.477 160.873C521.492 165.958 519.508 171.044 517.536 176.13L521.983 166.285C519.532 171.044 517.083 175.803 514.634 180.56L519.936 171.371C516.434 175.887 513.409 180.658 510.838 185.695C510.69 186.155 510.8 186.241 511.192 185.937L511.927 185.174C513.005 183.794 514.058 182.39 515.063 180.948C515.883 179.823 516.68 178.685 517.439 177.522C519.801 173.998 522.006 170.378 524.04 166.648C525.287 165.583 526.44 164.42 527.492 163.161C528.398 162.253 528.877 161.163 528.925 159.916C528.999 159.371 528.877 158.85 528.558 158.354C527.749 156.562 526.906 154.782 526.023 153.026C525.165 151.258 524.259 149.514 523.317 147.783C523.121 147.226 522.777 146.814 522.288 146.536L520.585 145.833C520.537 146.391 520.684 146.911 521.039 147.396C521.675 148.655 522.337 149.914 523.024 151.149C523.867 152.699 524.725 154.249 525.608 155.775C526.17 156.877 526.832 157.906 527.578 158.875Z" fill="white"/>
<path opacity="0.11" d="M526.415 155.157L527.787 156.078C525.153 151.476 522.508 146.875 519.875 142.274C520.476 149.43 521.064 156.586 521.662 163.73C522.41 159.105 523.146 154.491 523.892 149.866C522.619 155.714 521.344 161.575 520.071 167.423L523.157 157.979C521.283 163.149 519.409 168.307 517.536 173.478L522.436 163.355C520.046 167.859 517.658 172.352 515.27 176.856C517.095 174.083 518.92 171.323 520.745 168.55C517.879 172.764 515 176.989 512.136 181.204C511.94 181.494 511.179 182.294 511.327 182.717C511.413 182.959 513.508 180.767 513.569 180.695C515.099 178.987 516.594 177.232 518.063 175.476C519.091 174.241 521.051 172.509 521.591 170.959C522.986 167.484 524.04 163.9 524.75 160.231C525.081 156.393 525.056 152.554 524.676 148.716C523.721 153.874 522.765 159.032 521.81 164.191C522.79 163.561 523.648 162.81 524.381 161.926C526.023 160.316 527.161 158.366 527.799 156.078C527.823 155.472 527.665 154.927 527.285 154.407C526.305 152.493 525.287 150.593 524.236 148.716C523.207 146.827 522.128 144.962 521.013 143.121C520.769 142.54 520.389 142.092 519.863 141.802L517.915 141.232C517.915 141.85 518.136 142.407 518.541 142.916C519.325 144.26 520.12 145.604 520.952 146.911C521.97 148.57 523.011 150.217 524.076 151.852C524.762 153.026 525.545 154.128 526.415 155.157Z" fill="white"/>
<path opacity="0.11" d="M528.057 157.834L529.011 158.597C526.929 154.891 524.847 151.198 522.777 147.493C524.259 151.937 525.753 156.381 527.235 160.825C526.293 157.277 525.361 153.717 524.419 150.169C523.831 155.267 523.243 160.365 522.668 165.45C523.342 162.229 524.014 158.996 524.701 155.775C523.317 160.643 521.932 165.511 520.55 170.378C521.54 167.363 522.533 164.36 523.525 161.345L518.027 175.186L521.848 166.746C519.606 171.032 517.352 175.319 515.112 179.606L519.717 171.783C516.434 175.779 513.654 180.054 511.388 184.618C511.266 185.018 511.388 185.103 511.732 184.872L512.381 184.242C513.336 183.08 514.242 181.894 515.125 180.683C515.846 179.739 516.533 178.758 517.194 177.776C519.9 173.817 522.349 169.713 524.567 165.462C526.611 163.355 528.778 161.781 529.378 158.802C529.452 158.306 529.33 157.834 529.011 157.398C528.215 155.812 527.37 154.262 526.489 152.724C525.631 151.174 524.737 149.648 523.806 148.135C523.599 147.638 523.268 147.287 522.803 147.081L521.148 146.367C521.1 146.875 521.26 147.348 521.601 147.784C522.227 148.898 522.889 149.999 523.561 151.077C524.394 152.445 525.239 153.79 526.109 155.134C526.659 156.102 527.309 156.998 528.057 157.834Z" fill="white"/>
<path opacity="0.11" d="M528.902 162.701L529.648 163.658L527.688 159.94C527.37 161.575 526.758 162.834 525.741 164.202C524.505 165.861 522.765 167.23 521.614 168.937C520.634 170.414 520.046 172.485 519.287 174.071C516.924 178.999 513.641 183.152 510.151 187.331C509.809 187.741 508.756 188.892 508.853 189.46C508.903 189.74 509.061 190.285 509.478 189.837C512.05 187.27 514.377 184.509 516.471 181.542C518.699 177.776 521.222 174.216 524.014 170.838C525.557 169.482 526.855 168.779 528.263 167.254C529.06 166.382 530.64 164.687 530.272 163.306C529.954 162.059 528.938 160.812 528.253 159.734C527.97 159.286 527.395 158.306 527.161 159.226C526.965 160.037 528.423 162.108 528.889 162.701H528.902Z" fill="white"/>
<path opacity="0.11" d="M477.625 31.2257C478.948 35.8512 479.585 40.5737 479.534 45.393V44.9571C479.437 47.4998 479.34 50.0307 479.229 52.5734L479.254 52.1375C478.788 56.8841 477.772 61.5097 476.192 66.0141C474.613 70.4944 472.531 74.7203 469.934 78.704C469.665 79.1883 469.799 79.0431 470.204 79.031L471.207 78.4256C472.322 77.6142 473.412 76.7787 474.489 75.919C476.156 74.6113 477.821 73.2914 479.437 71.9231C480.086 71.3661 481.029 70.7366 481.347 69.901C483.943 62.89 486.16 55.9639 486.761 48.4686C487.545 38.7574 486.883 28.913 485.303 19.335C484.801 19.5288 484.434 19.8799 484.19 20.3885C483.111 21.9142 482.07 23.4641 481.066 25.0383C480.038 26.6003 479.058 28.1866 478.114 29.797C477.76 30.2329 477.589 30.7051 477.612 31.238L477.625 31.2257Z" fill="white"/>
<path opacity="0.11" d="M477.943 33.6714C478.434 36.0324 478.936 38.3936 479.425 40.7669L479.389 40.331C479.865 47.4874 480.184 54.5588 478.434 61.6183L476.461 68.3748C474.87 72.8066 472.788 76.9841 470.191 80.9195C469.321 82.4332 473.768 78.2919 473.081 78.9579C474.662 77.4321 476.217 75.8702 477.76 74.2961C478.605 73.509 479.364 72.6492 480.025 71.7169C481.863 67.0551 483.686 62.4416 484.753 57.5254C485.817 52.6093 486.382 47.3542 486.331 42.3653C486.295 38.7448 486.051 35.1122 485.817 31.5038C485.488 26.3576 485.499 27.1326 484.447 20.7391C483.969 20.9936 483.625 21.393 483.442 21.938C482.512 23.609 481.629 25.2921 480.784 27.0115C479.916 28.7068 479.083 30.4262 478.299 32.1698C477.981 32.6421 477.857 33.1506 477.943 33.6835V33.6714Z" fill="white"/>
<path opacity="0.11" d="M474.305 34.0949C475.102 40.791 475.911 47.475 476.706 54.1713C476.314 57.6584 475.494 61.0489 474.244 64.3061C473.646 66.5463 472.775 68.6895 471.637 70.7238C470.265 73.9205 468.514 76.8992 466.383 79.6842C465.721 80.7135 468.097 79.8538 468.415 79.3331C470.866 75.3252 473.29 71.3656 474.992 66.9701C477.123 61.4485 478.274 55.6727 478.605 49.7879C478.849 45.4772 478.826 46.7606 478.617 42.4016C478.348 36.7225 479.033 39.5803 475.359 33.332C474.955 32.6418 474.074 33.55 474.282 34.0707L474.305 34.0949Z" fill="white"/>
<path opacity="0.11" d="M475.041 39.9077C476.168 43.2981 476.767 46.7611 476.854 50.3091C477.515 56.0605 477.037 61.788 475.42 67.4912L473.229 74.1874C471.477 78.5706 469.199 82.6877 466.419 86.5139C466.016 87.1557 466.531 87.1799 466.958 86.9984C467.816 86.6473 468.942 85.0973 469.408 84.3223C471.918 80.0723 474.405 75.8827 476.095 71.2207C477.38 67.6729 478.188 64.0765 478.788 60.3712C479.389 56.6661 479.389 56.8476 479.499 52.8639C479.72 50.4058 479.633 47.972 479.267 45.5381C479.094 42.1476 478.544 38.8178 477.6 35.5484C477.406 34.6282 476.413 36.5051 476.462 36.4324C476.046 37.1953 474.832 38.9631 475.041 39.9077Z" fill="white"/>
<path opacity="0.11" d="M477.136 34.6284C478.495 39.2781 479.155 44.0248 479.132 48.8683V48.3475C479.033 50.9026 478.923 53.4453 478.801 56.0003L478.837 55.4796C478.36 60.1778 477.307 64.7549 475.715 69.211C474.122 73.6185 472.04 77.7961 469.445 81.7192C468.427 83.4629 473.718 78.3529 472.923 79.1279C474.883 77.2026 476.817 75.2411 478.727 73.2672C479.768 72.2745 480.723 71.2088 481.581 70.0706C484.226 62.8902 486.491 55.8186 487.092 48.1417C487.863 38.2973 487.092 28.3318 485.549 18.6085C484.997 18.9719 484.592 19.4804 484.335 20.1222C483.161 22.1928 482.021 24.2997 480.919 26.4065C479.793 28.5135 478.714 30.6447 477.673 32.7879C477.281 33.357 477.098 33.9745 477.111 34.6284H477.136Z" fill="white"/>
<path opacity="0.11" d="M477.797 32.0972C479.132 36.7348 479.781 41.4694 479.743 46.2887V45.8286C479.646 48.3713 479.547 50.9143 479.437 53.457L479.463 52.9969C478.997 57.7314 477.981 62.3449 476.4 66.8371C474.832 71.2932 472.75 75.5191 470.166 79.4907C469.898 79.975 470.033 79.8904 470.449 79.8056L471.477 79.0912C472.617 78.1587 473.743 77.2143 474.845 76.2455C476.56 74.7562 478.261 73.2669 479.916 71.7169C480.601 71.0873 481.532 70.3851 481.863 69.4769C484.422 62.4416 486.59 55.4913 487.166 47.9718C487.912 38.2 487.202 28.3073 485.634 18.6565C485.119 18.923 484.74 19.3225 484.495 19.8795C483.393 21.6112 482.339 23.3668 481.311 25.1469C480.27 26.9146 479.267 28.6947 478.299 30.4989C477.931 30.9832 477.76 31.516 477.797 32.0851V32.0972Z" fill="white"/>
<path opacity="0.11" d="M475.911 37.0615C476.56 41.6629 477.197 46.252 477.846 50.8534C477.981 54.4374 477.661 57.9612 476.889 61.4363C475.384 69.864 472.286 76.3301 467.694 83.9585C466.958 85.1815 470.461 82.0817 469.922 82.6023C471.073 81.4641 472.2 80.3138 473.302 79.1272C473.926 78.546 474.453 77.8921 474.894 77.1655C477.271 72.8306 479.132 68.2899 480.466 63.5433C481.543 59.9834 482.192 56.3506 482.413 52.6576C483.258 44.254 482.413 36.0202 481.041 27.7135C480.98 27.302 481.018 27.3866 480.662 27.5199L480.135 28.2101C479.608 29.0818 479.119 29.9658 478.653 30.8739C477.92 32.2543 477.184 33.6469 476.523 35.0635C476.253 35.6447 475.787 36.3834 475.935 37.0494L475.911 37.0615Z" fill="white"/>
<path opacity="0.11" d="M475.983 35.0277C477.76 39.4957 478.348 44.1092 477.76 48.8679C478.213 53.5662 477.76 58.1917 476.388 62.7204C475.654 64.9241 474.919 67.1279 474.171 69.3316C472.421 73.6423 470.166 77.6867 467.412 81.4524C467.117 81.9005 467.534 81.9974 467.865 82.0215C468.318 82.0457 469.445 81.0044 469.665 80.6412C472.371 76.7423 474.563 72.5768 476.253 68.1451C477.956 63.7011 479.094 59.124 479.659 54.4016C479.989 51.9193 480.122 49.437 480.074 46.9547C480.209 42.1597 479.376 37.5463 477.564 33.1024C477.319 32.267 475.8 34.4465 475.96 35.0398L475.983 35.0277Z" fill="white"/>
<path opacity="0.11" d="M476.927 36.977C477.429 39.3262 477.93 41.6751 478.434 44.0122L478.384 43.5641C478.788 49.558 478.984 55.2975 477.956 61.2793C476.51 69.6827 473.473 76.1729 468.967 83.8135C468.746 84.2737 468.857 84.3706 469.285 84.092C470.179 83.3655 470.988 82.5664 471.722 81.6703C473.203 80.0476 474.649 78.4009 476.082 76.7299C476.879 75.8944 477.576 74.9984 478.177 74.0175C480.379 69.5253 482.059 64.8391 483.222 59.9835C484.386 55.1037 484.997 50.1512 485.058 45.1383C485.193 37.7762 484.386 30.5715 483.246 23.3184C482.769 23.609 482.438 24.0327 482.255 24.602C481.349 26.3698 480.491 28.1498 479.669 29.954C478.826 31.7461 478.017 33.5624 477.258 35.3908C476.95 35.8993 476.841 36.42 476.927 36.977Z" fill="white"/>
<path opacity="0.11" d="M477.281 33.3199C478.63 37.9696 479.279 42.7042 479.254 47.5356V47.039C479.155 49.594 479.045 52.1368 478.936 54.6918L478.972 54.1954C478.495 58.9177 477.467 63.519 475.861 67.9871C474.282 72.4311 472.187 76.6207 469.591 80.5802C469.298 81.0887 469.445 81.0039 469.886 80.8949L470.963 80.0958C472.162 79.0665 473.338 78.0131 474.491 76.9233C476.278 75.2766 478.065 73.6177 479.804 71.9103C480.514 71.2081 481.494 70.4331 481.85 69.4643C482.708 67.1154 483.699 64.7421 484.409 62.3446C485.499 58.6755 486.198 55.0067 486.713 51.2407C488.182 40.4519 487.349 29.2634 485.634 18.5594C485.096 18.8741 484.691 19.3222 484.434 19.9277C483.271 21.8286 482.131 23.7662 481.041 25.7157C479.926 27.653 478.849 29.6146 477.821 31.5884C477.429 32.1211 477.245 32.6902 477.258 33.3078L477.281 33.3199Z" fill="white"/>
<path opacity="0.11" d="M477.503 35.7785C478.139 40.3556 478.776 44.9448 479.412 49.5219C479.56 53.1061 479.254 56.6297 478.506 60.117C477.062 68.5567 474.013 75.0592 469.506 82.736C468.722 84.08 472.567 80.387 471.979 80.9924C473.277 79.6241 474.563 78.2196 475.812 76.8028C476.51 76.1005 477.123 75.3255 477.637 74.478C479.878 70.0219 481.604 65.3842 482.793 60.5528C483.76 56.9202 484.323 53.2393 484.458 49.5098C485.107 40.9488 484.262 32.5213 482.892 24.0814C482.449 24.2994 482.156 24.6626 481.996 25.1592C481.214 26.6606 480.479 28.1862 479.768 29.7362C479.168 31.0319 477.136 34.1196 477.477 35.7663L477.503 35.7785Z" fill="white"/>
<path opacity="0.11" d="M475.641 40.8274C476.179 43.1161 476.719 45.4046 477.245 47.6931C478.213 53.6265 477.992 59.4507 476.609 65.1538C476.291 67.4909 475.69 69.7552 474.784 71.947C473.119 77.517 470.474 82.6631 466.849 87.3734C466.467 87.9788 467.129 87.894 467.412 87.8335C468.061 87.7125 468.954 86.1383 469.273 85.6176C470.51 83.5954 471.905 81.5855 473.02 79.4906C475.848 74.1265 477.76 68.399 478.849 62.4658C479.524 58.8089 479.989 55.0552 479.926 51.3257C479.854 46.4217 478.824 41.9294 477.65 37.1707C477.441 36.3352 476.621 37.9215 476.632 37.8973C476.265 38.5995 475.433 39.9799 475.629 40.8274H475.641Z" fill="white"/>
<path opacity="0.11" d="M430.072 177.716C427.819 180.61 425.64 183.444 424.034 186.749C421.928 191.084 420.668 195.783 419.994 200.517C419.566 203.47 419.553 206.123 419.994 209.065C420.08 210.385 420.386 211.656 420.912 212.868C421.389 214.817 422.32 216.561 423.692 218.086C423.901 218.413 427.783 214.296 427.697 214.394C428.089 213.981 431.406 211.185 431.199 210.228C430.869 208.751 430.428 207.225 430.306 205.723C430.072 202.926 430.673 200.165 431.541 197.525C432.559 194.401 433.648 191.363 435.166 188.444C437.151 184.642 439.562 181.615 442.403 178.382C442.037 178.128 441.609 178.007 441.13 178.043C439.514 177.897 437.885 177.789 436.268 177.703C434.652 177.607 433.024 177.534 431.395 177.509C430.93 177.426 430.489 177.497 430.085 177.703L430.072 177.716Z" fill="white"/>
<path opacity="0.11" d="M430.635 179.11C428.369 182.002 426.165 184.836 424.537 188.141C422.394 192.488 421.108 197.187 420.36 201.934C419.895 204.9 419.834 207.565 420.238 210.543C420.299 211.874 420.594 213.171 421.119 214.406C421.585 216.38 422.491 218.159 423.85 219.735C424.011 219.989 427.267 215.604 427.182 215.713C427.636 215.084 430.171 212.383 429.95 211.295C429.619 209.707 429.13 208.073 428.97 206.463C428.687 203.568 429.227 200.711 430.108 197.975C431.149 194.766 432.228 191.642 433.771 188.639C435.754 184.751 438.203 181.664 441.094 178.37C440.764 178.164 440.384 178.103 439.98 178.176C438.595 178.214 437.212 178.297 435.84 178.407C435.082 178.468 431.309 178.262 430.635 179.12V179.11Z" fill="white"/>
<path opacity="0.11" d="M427.022 176.118C425.296 178.466 423.728 180.61 422.345 183.165C420.03 187.476 418.132 192.234 417.311 197.054C416.723 200.467 416.442 203.81 416.735 207.261C416.858 209.405 417.323 211.474 418.132 213.448C418.708 215.628 419.762 217.565 421.317 219.272C421.61 219.72 423.018 218.91 422.748 218.449C421.058 216.221 419.981 213.739 419.515 210.991C419.026 208.338 418.818 205.662 418.916 202.974C419.406 193.397 424.072 184.424 429.595 176.808C430.059 176.166 427.28 175.742 427.01 176.105L427.022 176.118Z" fill="white"/>
<path opacity="0.11" d="M426.569 181.615C423.227 186.266 420.373 190.867 418.708 196.412C417.58 200.19 416.417 204.573 416.43 208.471C416.43 209.732 416.478 211.318 416.613 212.564L417.3 216.646C417.972 219.564 419.283 222.167 421.231 224.457C421.401 224.721 423.509 222.725 423.117 222.095C421.475 219.976 420.348 217.615 419.76 215.011C418.622 209.453 418.866 204.053 420.483 198.834C421.108 195.976 422.063 193.215 423.336 190.563C424.721 187.283 426.495 184.242 428.7 181.446C429.056 180.925 426.877 181.204 426.582 181.615H426.569Z" fill="white"/>
<path opacity="0.11" d="M430.085 179.654C427.819 182.561 425.627 185.405 423.985 188.723C421.829 193.082 420.533 197.794 419.797 202.564C419.344 205.542 419.283 208.219 419.688 211.197C419.76 212.541 420.042 213.825 420.569 215.06C421.035 217.069 421.964 218.874 423.374 220.447C423.52 220.666 427.697 215.363 427.598 215.484C428.651 214.127 429.667 212.747 430.66 211.355C431.003 210.991 431.21 210.58 431.271 210.107C431.027 208.607 430.599 207.069 430.489 205.566C430.268 202.77 430.892 200.021 431.798 197.417C432.89 194.293 433.99 191.23 435.545 188.312C437.579 184.486 440.041 181.433 442.943 178.176C442.515 177.982 442.049 177.947 441.571 178.068C439.87 178.214 438.18 178.382 436.489 178.589C434.799 178.77 433.109 178.999 431.419 179.254C430.917 179.254 430.489 179.399 430.108 179.679L430.085 179.654Z" fill="white"/>
<path opacity="0.11" d="M430.403 178.32C428.15 181.215 425.97 184.049 424.354 187.354C422.234 191.688 420.961 196.375 420.251 201.109C419.81 204.064 419.772 206.704 420.202 209.657C420.276 210.978 420.581 212.25 421.096 213.473C421.561 215.434 422.48 217.19 423.863 218.728C424.046 219.018 428.04 214.477 427.941 214.575C428.957 213.425 429.937 212.262 430.904 211.074C431.248 210.772 431.444 210.409 431.492 209.985C431.212 208.52 430.782 207.007 430.672 205.529C430.451 202.756 431.077 200.019 431.958 197.429C433.012 194.328 434.101 191.301 435.632 188.396C437.64 184.605 440.066 181.577 442.93 178.345C442.538 178.103 442.098 178.018 441.621 178.078C439.967 178.018 438.327 177.995 436.673 178.006C435.02 178.006 433.366 178.006 431.726 178.078C431.248 178.018 430.807 178.116 430.415 178.345L430.403 178.32Z" fill="white"/>
<path opacity="0.11" d="M428.321 180.502C426.62 182.717 425.064 184.751 423.692 187.174C421.328 191.375 419.503 195.976 418.609 200.723C417.998 203.981 417.618 207.165 417.825 210.482C417.886 212.566 418.291 214.563 419.051 216.488C419.54 218.511 420.483 220.326 421.903 221.914C422.076 222.192 424.108 218.68 424.047 218.789C424.415 218.136 425.859 216.246 425.589 215.325C424.341 211.112 423.385 207.056 423.998 202.612C424.807 199.234 425.785 195.904 426.925 192.622C428.75 187.743 431.469 183.384 435.105 179.545C435.619 178.928 432.791 179.437 432.534 179.472C431.53 179.63 428.995 179.606 428.308 180.514L428.321 180.502Z" fill="white"/>
<path opacity="0.11" d="M427.794 177.547C425.528 180.646 423.471 183.54 421.867 187.016C420.605 189.777 419.688 192.586 418.917 195.504C417.802 199.755 416.98 204.222 417.532 208.63L418.217 212.758C418.879 215.677 420.164 218.293 422.099 220.606C422.381 221.041 423.937 219.903 423.655 219.418C421.989 217.215 420.9 214.769 420.398 212.068C419.968 210.095 419.76 208.109 419.772 206.1C419.564 203.435 419.859 200.819 420.666 198.217C422.308 190.636 425.505 183.892 430.255 177.995C430.685 177.389 428.076 177.171 427.781 177.559L427.794 177.547Z" fill="white"/>
<path opacity="0.11" d="M429.606 180.719C427.353 183.625 425.174 186.459 423.545 189.777C421.389 194.172 420.091 198.906 419.344 203.714C418.866 206.729 418.805 209.453 419.209 212.468C419.271 213.837 419.576 215.156 420.116 216.415C420.594 218.438 421.524 220.254 422.908 221.864C423.031 222.058 425.846 217.432 425.785 217.542C426.276 216.694 428.297 214.104 428.051 212.881C427.722 211.185 427.182 209.478 426.961 207.771C426.569 204.766 426.986 201.776 427.88 198.906C428.909 195.614 429.975 192.392 431.492 189.292C433.44 185.332 435.876 182.208 438.78 178.855C438.46 178.685 438.131 178.662 437.762 178.782C436.538 178.976 435.326 179.193 434.127 179.447C433.208 179.629 430.316 179.799 429.606 180.708V180.719Z" fill="white"/>
<path opacity="0.11" d="M430.049 178.975C427.794 181.869 425.602 184.714 423.973 188.033C421.842 192.38 420.556 197.077 419.834 201.836C419.393 204.802 419.344 207.467 419.762 210.422C419.834 211.754 420.128 213.037 420.655 214.26C421.121 216.246 422.063 218.026 423.459 219.575C423.631 219.841 427.806 214.89 427.709 214.998C428.761 213.739 429.792 212.468 430.795 211.16C431.149 210.833 431.345 210.433 431.419 209.985C431.162 208.507 430.734 206.982 430.611 205.494C430.39 202.72 431.016 199.971 431.91 197.369C432.974 194.256 434.076 191.217 435.619 188.31C437.64 184.509 440.089 181.469 442.968 178.224C442.538 178.006 442.085 177.945 441.596 178.03C439.893 178.066 438.18 178.139 436.477 178.249C434.774 178.333 433.073 178.454 431.37 178.612C430.869 178.587 430.428 178.697 430.036 178.962L430.049 178.975Z" fill="white"/>
<path opacity="0.11" d="M429.889 180.016C427.659 182.911 425.528 185.745 423.912 189.037C421.77 193.422 420.472 198.144 419.724 202.939C419.247 205.942 419.197 208.653 419.602 211.668C419.675 213.037 419.968 214.344 420.508 215.617C420.973 217.613 421.892 219.418 423.252 221.004C423.397 221.235 425.81 217.178 425.749 217.286C426.19 216.513 427.88 214.321 427.648 213.243C427.269 211.524 426.717 209.768 426.485 208.024C426.08 204.973 426.46 201.922 427.341 199.002C428.346 195.672 429.399 192.428 430.917 189.304C432.839 185.345 435.24 182.208 438.106 178.83C437.836 178.649 437.543 178.599 437.2 178.685C436.11 178.781 435.02 178.914 433.942 179.085C433.147 179.193 430.502 179.218 429.876 180.016H429.889Z" fill="white"/>
<path opacity="0.11" d="M427.121 181.904L423.912 186.397C422.417 188.831 421.205 191.386 420.287 194.074C418.535 198.602 416.931 203.943 416.944 208.811C416.944 211.512 417.152 214.344 417.814 216.984C418.598 220.12 419.994 222.3 421.781 225.049C421.989 225.363 423.728 223.692 423.374 223.123C420.116 218.812 418.647 213.812 418.978 208.121C419.136 205.129 419.638 202.212 420.483 199.354C421.096 196.485 422.038 193.724 423.3 191.059C424.634 187.839 426.386 184.847 428.542 182.088C429.069 181.312 427.366 181.567 427.121 181.917V181.904Z" fill="white"/>
<path opacity="0.11" d="M423.593 124.814C422.088 129.451 420.9 134.016 420.263 138.86C419.528 144.478 419.393 150.012 419.357 155.679C419.357 155.752 422.676 153.693 422.626 153.73C423.018 153.463 425.578 152.131 425.64 151.405C426.068 146.149 426.436 140.906 427.317 135.7C428.101 131.098 429.399 126.909 431.016 122.513C431.016 122.489 427.195 123.458 427.231 123.446C426.851 123.567 423.802 124.16 423.593 124.814Z" fill="white"/>
<path opacity="0.11" d="M423.814 125.782C422.297 130.432 421.096 135.009 420.447 139.864C419.7 145.495 419.553 151.053 419.504 156.744C419.504 156.744 422.345 154.552 422.333 154.552C422.786 154.153 424.794 152.821 424.856 152.022C425.273 146.706 425.627 141.39 426.497 136.135C427.269 131.473 428.578 127.235 430.207 122.791C430.207 122.815 426.925 124.075 426.913 124.075C426.424 124.305 424.046 125.055 423.814 125.77V125.782Z" fill="white"/>
<path opacity="0.11" d="M421.401 124.535C419.663 130.372 418.463 136.051 417.911 142.129C417.361 148.208 417.532 150.085 417.57 155.982C417.57 156.514 418.855 155.957 418.855 155.715C418.868 143.897 419.663 135.094 422.761 124.463C422.908 123.978 421.475 124.269 421.391 124.535H421.401Z" fill="white"/>
<path opacity="0.11" d="M421.513 128.07C420.031 132.78 418.879 137.406 418.267 142.322C417.544 148.05 417.471 153.668 417.509 159.444C417.509 159.831 419.21 158.584 419.21 158.136C419.21 152.481 419.308 146.911 420.031 141.281C420.655 136.401 421.806 131.909 423.3 127.211C423.41 126.884 421.648 127.646 421.513 128.07Z" fill="white"/>
<path opacity="0.11" d="M423.397 126.182C421.88 130.831 420.691 135.421 420.042 140.288C419.296 145.931 419.161 151.501 419.112 157.192C419.431 157.119 419.7 156.962 419.932 156.708C420.839 155.957 421.732 155.194 422.603 154.407C423.104 153.959 425.701 152.203 425.787 151.283C426.251 146.016 426.63 140.736 427.526 135.517C428.321 130.88 429.657 126.666 431.296 122.246C430.978 122.234 430.673 122.307 430.39 122.501C429.338 122.985 428.285 123.481 427.244 124.002C426.693 124.281 423.667 125.334 423.397 126.17V126.182Z" fill="white"/>
<path opacity="0.11" d="M423.741 125.201C422.223 129.838 421.047 134.403 420.398 139.259C419.65 144.877 419.515 150.423 419.467 156.09C419.467 156.102 422.835 153.826 422.811 153.85C423.239 153.523 425.81 152.034 425.872 151.247C426.325 146.004 426.704 140.748 427.587 135.554C428.371 130.94 429.693 126.751 431.322 122.355C431.322 122.379 427.439 123.566 427.439 123.566C426.999 123.736 423.949 124.486 423.717 125.201H423.741Z" fill="white"/>
<path opacity="0.11" d="M422.358 127.054C420.864 131.716 419.711 136.305 419.087 141.172C418.352 146.839 418.23 152.433 418.206 158.149C418.206 158.234 420.251 156.453 420.225 156.478C420.617 156.09 421.88 155.158 421.928 154.48C422.223 149.043 422.491 143.606 423.288 138.218C423.985 133.483 425.235 129.173 426.826 124.656C426.852 124.596 424.464 125.673 424.489 125.661C424.023 125.915 422.565 126.448 422.369 127.066L422.358 127.054Z" fill="white"/>
<path opacity="0.11" d="M422.076 125.419C420.618 130.141 419.492 134.803 418.868 139.731C418.145 145.471 418.071 151.089 418.095 156.877C418.095 157.386 419.479 156.659 419.479 156.369C419.479 150.665 419.602 145.047 420.35 139.368C420.986 134.452 422.112 129.875 423.57 125.128C423.705 124.668 422.173 125.104 422.076 125.407V125.419Z" fill="white"/>
<path opacity="0.11" d="M423.117 127.066C421.597 131.728 420.423 136.317 419.785 141.185C419.039 146.839 418.904 152.434 418.868 158.137C418.868 158.076 421.427 155.776 421.452 155.739C421.928 155.231 423.631 153.887 423.705 153.027C424.097 147.663 424.428 142.311 425.26 136.995C426.006 132.309 427.305 128.047 428.934 123.578C428.898 123.675 425.983 125.08 425.909 125.116C425.357 125.443 423.374 126.279 423.129 127.054L423.117 127.066Z" fill="white"/>
<path opacity="0.11" d="M423.448 125.686C421.928 130.335 420.752 134.912 420.103 139.768C419.357 145.399 419.222 150.956 419.186 156.635C419.186 156.599 422.676 154.105 422.676 154.117C423.14 153.742 425.798 152.095 425.872 151.235C426.337 145.98 426.717 140.725 427.6 135.518C428.394 130.892 429.718 126.691 431.358 122.295C431.322 122.392 427.353 123.76 427.317 123.785C426.826 123.99 423.705 124.911 423.46 125.686H423.448Z" fill="white"/>
<path opacity="0.11" d="M423.374 126.557C421.867 131.207 420.679 135.784 420.042 140.651C419.296 146.306 419.174 151.876 419.125 157.579C419.125 157.592 421.427 155.569 421.414 155.569C421.855 155.121 423.325 154.007 423.374 153.245C423.741 147.868 424.059 142.492 424.881 137.164C425.614 132.478 426.9 128.216 428.506 123.736C428.506 123.736 425.836 124.946 425.823 124.946C425.334 125.213 423.583 125.879 423.361 126.557H423.374Z" fill="white"/>
<path opacity="0.11" d="M421.597 128.542C420.202 133.228 419.161 137.854 418.56 142.71C417.85 148.449 417.789 154.08 417.827 159.868C417.827 160.303 419.235 159.25 419.235 158.887C419.21 153.196 419.283 147.589 419.981 141.935C420.581 137.128 421.524 132.635 422.86 127.961C422.969 127.586 421.709 128.228 421.61 128.555L421.597 128.542Z" fill="white"/>
<path opacity="0.11" d="M441.278 96.9271C442.747 91.817 445.185 87.1917 448.589 83.0383C450.88 78.2675 454.003 74.1625 457.982 70.6996C458.667 70.0094 455.546 71.5592 455.986 71.3414C454.798 71.9226 453.611 72.5279 452.435 73.1333C451.809 73.424 451.211 73.7751 450.646 74.1625C446.753 78.4976 445.699 79.4299 442.515 84.3218C438.928 89.8313 436.342 95.6313 433.967 101.722C434.285 101.698 434.58 101.589 434.837 101.371C435.817 100.766 436.795 100.148 437.752 99.5061C438.475 99.0339 440.911 97.8957 441.278 96.915V96.9271Z" fill="white"/>
<path opacity="0.11" d="M441.646 97.8952C442.576 94.8075 443.826 91.8651 445.381 89.0558C448.492 82.4687 452.85 76.6564 458.435 71.6314C459.049 71.0017 456.195 72.1036 456.537 71.9825C455.386 72.3943 454.248 72.8059 453.108 73.2418C452.509 73.4477 451.921 73.6898 451.369 74.0047C447.573 78.146 446.165 79.3204 443.141 84.1154C439.686 89.5887 437.016 95.2797 434.666 101.298C434.702 101.201 438.205 99.8325 438.266 99.7963C438.841 99.5177 441.352 98.6822 441.657 97.8952H441.646Z" fill="white"/>
<path opacity="0.11" d="M442.553 95.3399C444.487 89.334 447.341 83.7399 451.088 78.5815C453.561 75.1669 456.366 72.0428 459.489 69.2093C460.09 68.604 457.934 69.5727 457.664 69.8632C453.843 73.8107 450.378 77.734 447.426 82.3352C444.475 86.9365 442.38 91.6711 440.397 96.7447C440.213 97.2048 441.217 96.5509 441.107 96.5992C441.512 96.3935 442.367 95.8122 442.553 95.352V95.3399Z" fill="white"/>
<path opacity="0.11" d="M443.029 98.6221C444.365 93.5122 446.766 88.9109 450.205 84.8181C452.484 80.0473 455.63 75.9545 459.647 72.5398C460.1 72.0918 458.876 72.1039 458.669 72.3098C454.92 76.1482 451.491 79.9384 448.589 84.4185C445.687 88.8988 443.887 93.6454 442.123 98.6946C441.977 99.1064 442.919 98.8884 443.016 98.6221H443.029Z" fill="white"/>
<path opacity="0.11" d="M440.985 98.4041C442.295 94.3356 444.009 90.4367 446.152 86.7313C449.287 81.2218 453.206 76.2816 457.908 71.9345C457.615 71.874 457.321 71.9103 457.027 72.0434C455.986 72.3583 454.945 72.6974 453.917 73.0485C452.949 73.3754 450.831 73.7508 450.07 74.5985L445.822 79.2965C443.764 81.8516 441.952 84.5518 440.397 87.4215C437.665 92.0956 435.56 96.7574 433.587 101.807C433.625 101.698 437.334 100.341 437.383 100.317C437.948 100.063 440.679 99.2033 440.985 98.4162V98.4041Z" fill="white"/>
<path opacity="0.11" d="M441.351 97.3867C442.283 94.2988 443.52 91.3564 445.075 88.5351C448.173 81.96 452.496 76.16 458.068 71.1348C458.754 70.4446 455.569 71.8856 455.986 71.7162C454.724 72.2609 453.476 72.8179 452.226 73.387C451.565 73.6535 450.928 73.9805 450.328 74.3558C446.58 78.5091 445.099 79.8289 442.123 84.612C438.681 90.1213 436.013 95.8488 433.661 101.879C433.992 101.879 434.285 101.77 434.567 101.564C435.608 101.007 436.624 100.426 437.64 99.8325C438.327 99.433 441.021 98.3311 441.377 97.3867H441.351Z" fill="white"/>
<path opacity="0.11" d="M441.743 98.5009C443.653 93.5 445.674 88.7776 448.589 84.2368C451.504 79.6961 454.81 76.0633 458.606 72.2492C459.023 71.8254 457.455 72.2492 457.651 72.2128C457.002 72.3703 455.668 72.5883 455.177 73.0967L450.928 77.5285C448.833 79.9745 446.998 82.5779 445.404 85.363C442.589 89.9521 440.544 94.5534 438.584 99.5785C438.401 100.039 439.465 99.5664 439.49 99.5543C439.895 99.4211 441.548 98.9731 441.731 98.513L441.743 98.5009Z" fill="white"/>
<path opacity="0.11" d="M442.919 96.3572C444.23 92.3008 445.969 88.4139 448.123 84.7207C451.272 79.2718 455.202 74.4041 459.917 70.1176C460.296 69.7302 458.914 70.2387 459.11 70.1541C458.497 70.3962 457.7 70.7232 457.236 71.1954C453.5 75.0339 450.132 78.8965 447.255 83.4373C444.376 87.978 442.296 92.6519 440.31 97.7013C440.127 98.1735 441.181 97.5561 441.12 97.5923C441.548 97.3744 442.736 96.8538 442.919 96.3572Z" fill="white"/>
<path opacity="0.11" d="M441.548 98.8399C442.466 95.7764 443.703 92.834 445.259 90.0489C448.38 83.4618 452.741 77.6618 458.349 72.6486C458.863 72.1281 456.635 72.7697 456.867 72.7093C455.974 72.9393 455.08 73.1694 454.186 73.4357C453.708 73.5447 453.255 73.7022 452.827 73.9202C448.724 78.2792 448.062 78.6668 444.719 83.7039C441.143 89.1045 438.597 94.7592 436.257 100.753C436.22 100.85 439.037 100.002 438.989 100.014C439.417 99.857 441.326 99.4452 441.56 98.852L441.548 98.8399Z" fill="white"/>
<path opacity="0.11" d="M441.033 97.9197C441.965 94.8318 443.202 91.8894 444.757 89.0803C447.866 82.4931 452.201 76.681 457.761 71.6438C457.909 71.4863 457.97 71.3773 457.677 71.45C456.684 71.668 455.754 72.0917 454.823 72.4551C453.464 72.9877 451.076 73.4601 450.06 74.5862C446.374 78.6669 444.989 79.8776 442.026 84.6242C438.597 90.1217 435.914 95.8369 433.564 101.867C433.87 101.879 434.163 101.794 434.432 101.613C435.437 101.128 436.428 100.62 437.408 100.099C438.032 99.7723 440.702 98.7914 441.033 97.9318V97.9197Z" fill="white"/>
<path opacity="0.11" d="M441.94 98.3316C443.409 93.2216 445.858 88.5962 449.287 84.455C451.577 79.6721 454.737 75.5671 458.754 72.1283C459.293 71.5954 456.966 72.3463 457.236 72.2614C456.218 72.5521 453.892 72.867 453.12 73.6662C449.029 78.001 448.307 78.4611 444.977 83.4741C441.377 88.8746 438.829 94.5536 436.477 100.559C436.453 100.62 439.318 99.6393 439.294 99.6513C439.76 99.4577 441.695 98.9491 441.94 98.3193V98.3316Z" fill="white"/>
<path opacity="0.11" d="M443.434 98.9005C444.755 93.7906 447.132 89.1895 450.574 85.0966C452.838 80.3258 455.986 76.233 460.003 72.8305C460.431 72.3946 459.306 72.3583 459.097 72.5521C455.35 76.3783 451.933 80.1563 449.042 84.6364C446.152 89.1167 444.363 93.8634 442.614 98.9126C442.466 99.3243 443.335 99.167 443.434 98.9126V98.9005Z" fill="white"/>
</svg>
