<svg width="953" height="958" viewBox="0 0 953 958" fill="none" xmlns="http://www.w3.org/2000/svg">
<path d="M467.517 613.145C468.056 613.243 486.965 616.065 493.884 616.065C499.273 616.065 499.309 613.437 529.508 610.809C528.027 624.006 508.886 628.124 495.279 630.049C478.834 632.375 469.538 626.115 466.93 626.878C460.33 628.814 477.584 642.667 451.855 622.627C448.045 619.659 443.06 612.637 440 609.5C451.682 613.085 455.491 610.869 467.517 613.145Z" fill="#DC8F6F"/>
<path d="M502.86 616.064C495.671 619.999 490.211 618.401 486.695 617.371C468.73 612.116 472.33 616.064 461.554 616.064C457.965 616.064 440.82 611.861 440 609.5C440.466 608.556 445.633 609.742 446.662 609.659C456.165 606.873 476.897 597.197 486.695 600.31C495.831 598.602 494.546 602.357 497.471 602.938C517.225 606.873 504.66 606.873 516.736 599.135C548.552 612.128 546.053 610.59 547.756 610.82C540.567 620.011 524.378 615.191 519.013 614.756" fill="#833D2A"/>
<path d="M545.968 612.128C532.767 625.884 518.132 641.298 495.671 641.008C452.565 633.138 484.404 633.9 493.48 624.794C507.086 622.868 519.025 630.497 526.214 616.064C535.901 614.356 529.803 614.756 545.968 612.128Z" fill="#AC5F42"/>
<path d="M516.749 599.135C508.262 604.257 517.238 609.501 497.484 602.938C494.717 602.017 470.922 609.04 461.799 610.749C452.001 607.636 457.978 609.5 440.013 609.5C447.202 608.194 454.378 604.245 461.567 601.63C462.901 601.146 484.529 588.747 516.76 599.135H516.749Z" fill="#C87E61"/>
<path d="M493.884 625.254C483.964 633.815 525.051 640.281 493.884 641.008C463.354 641.008 454.513 625.738 443.587 613.437C469.318 633.475 454.941 622.252 461.541 620.314C464.138 619.551 477.437 627.58 493.884 625.254Z" fill="#AC5F42"/>
</svg>
