<svg width="953" height="958" viewBox="0 0 953 958" fill="none" xmlns="http://www.w3.org/2000/svg">
<path d="M517.58 617.401C517.58 615.035 515.214 612.761 510.985 611.067C506.757 609.371 501 608.386 494.938 608.322C488.879 608.26 482.993 609.12 478.538 610.726C474.08 612.329 471.405 614.548 471.077 616.911L494.313 617.401H517.58Z" fill="#DDD9D7"/>
<path d="M517.58 617.401C517.58 615.035 515.214 612.761 510.985 611.067C506.757 609.371 501 608.386 494.938 608.322C488.879 608.26 482.993 609.12 478.538 610.726C474.08 612.329 471.405 614.548 471.077 616.911L494.313 617.401H517.58Z" fill="#DDD9D7"/>
<path d="M510.233 613.428C494.104 604.951 486.584 611.09 483.295 612.036C451.641 621.092 469.628 622.268 459.742 619.275C458.365 617.883 449.755 615.401 449 613.222C449.437 612.35 450.897 608.608 451.87 608.524C460.733 605.957 480.116 597.032 489.263 599.902C497.79 598.328 496.598 601.792 499.335 602.323C517.796 605.957 506.047 605.957 517.343 598.812C547.066 610.8 541.696 613.222 543.29 613.428C543.66 610.183 527.682 618.029 518.853 615.643" fill="#833D2A"/>
<path d="M473.017 615.376C473.521 615.474 488.596 621.276 494.924 622.244C504.109 624.118 502.724 615.643 530.954 613.222C529.561 625.391 511.686 629.193 498.964 630.962C483.59 633.104 474.914 627.34 472.48 628.042C466.321 629.822 482.432 642.598 458.399 624.118C454.824 621.382 451.854 616.116 449 613.222C459.927 616.527 461.79 613.27 473.034 615.376H473.017Z" fill="#DC8F6F"/>
<path d="M543.29 613.426C530.953 626.117 522.007 646.18 501.012 645.914C460.731 638.649 490.488 639.351 498.964 630.96C511.686 629.18 527.094 625.596 521.538 614.431C530.584 612.857 543.658 610.181 543.29 613.426Z" fill="#AC5F42"/>
<path d="M517.345 598.814C509.406 603.536 517.798 608.379 499.335 602.325C496.751 601.477 474.512 607.956 465.987 609.529C456.84 606.66 452.508 614.178 450.663 609.589C456.034 605.957 459.055 603.536 465.767 601.114C467.01 600.666 487.217 589.234 517.345 598.814Z" fill="#C87E61"/>
<path d="M498.964 630.961C489.7 638.855 528.469 645.238 499.335 645.915C470.802 645.915 467.244 634.254 457.039 622.909C481.073 641.387 466.303 629.822 472.464 628.042C474.896 627.34 483.574 633.116 498.948 630.961H498.964Z" fill="#AC5F42"/>
</svg>
